<svg width="63" height="42" viewBox="0 0 63 42" fill="none" xmlns="http://www.w3.org/2000/svg">
<path d="M60.5779 0H1.6007C0.715582 0 0 0.746987 0 1.66839V40.3305C0 41.2519 0.715582 42 1.6007 42H60.5779C61.463 42 62.1786 41.253 62.1786 40.3316V1.66839C62.1786 0.746987 61.463 0 60.5779 0ZM15.2958 19.1899L15.1109 18.7527V18.7768C15.1109 19.3379 14.6738 19.7935 14.1355 19.7935H11.2633C10.8669 19.7935 10.5113 19.5445 10.3605 19.1635L10.0666 18.42H8.43066L8.13231 19.1681C7.98259 19.5468 7.6259 19.7946 7.23398 19.7946H5.69934C5.37127 19.7946 5.06522 19.6225 4.88467 19.3379C4.70523 19.0511 4.6733 18.6908 4.80321 18.3775L7.33086 12.2192C7.48389 11.8462 7.83727 11.603 8.22809 11.603H10.3242C10.715 11.603 11.0662 11.8451 11.2214 12.218L11.751 13.5054V12.6208C11.751 12.0597 12.1869 11.6041 12.7263 11.6041H15.0327C15.4114 11.6041 15.7582 11.8359 15.9189 12.1951L16.8426 14.2857L17.6815 12.2249C17.8334 11.8485 18.1879 11.6041 18.5776 11.6041H20.9313C21.1295 11.6041 21.3023 11.681 21.4576 11.7866C21.6117 11.681 21.7845 11.6041 21.9838 11.6041H26.7C26.8828 11.6041 27.0446 11.6707 27.1888 11.7613C27.3352 11.6707 27.496 11.6041 27.6787 11.6041H30.9263C31.7663 11.6041 32.461 11.6351 33.1248 12.0344C33.192 12.0769 33.2404 12.1308 33.301 12.1767C33.4595 11.8417 33.7854 11.6041 34.1696 11.6041H35.6107C36.0984 11.6041 36.4859 11.9828 36.5574 12.4682C37.1893 11.8979 38.0502 11.6041 39.2084 11.6041H40.5746C40.7915 11.6041 40.9951 11.6787 41.157 11.8061C41.321 11.6776 41.5247 11.6041 41.7404 11.6041H43.8553C44.245 11.6041 44.5962 11.8474 44.7514 12.2203L45.2699 13.4848V12.6208C45.2699 12.0597 45.707 11.6041 46.2464 11.6041H48.3965C48.7388 11.6041 49.0548 11.79 49.2309 12.0952L49.9025 13.2553V12.6196C49.9025 12.0585 50.3406 11.603 50.8801 11.603H52.3245C52.8639 11.603 53.2998 12.0585 53.2998 12.6196V18.778C53.2998 19.3391 52.8617 19.7946 52.3245 19.7946H50.3252C49.9806 19.7946 49.6647 19.6087 49.4874 19.3035L48.621 17.8061V18.778C48.621 19.3391 48.1829 19.7946 47.6456 19.7946H44.7712C44.3782 19.7946 44.0248 19.5479 43.8707 19.1692L43.5723 18.4211H41.9452L41.6568 19.1589C41.5104 19.5433 41.1515 19.7958 40.7562 19.7958H39.1027C38.4741 19.7958 37.349 19.6776 36.5464 18.9765C36.455 19.44 36.0807 19.7958 35.6085 19.7958H34.1663C34.0067 19.7958 33.8602 19.7453 33.7248 19.673C33.5916 19.7453 33.4474 19.7958 33.2867 19.7958H31.8621C31.326 19.7958 30.89 19.3448 30.8856 18.7871L30.8801 18.0103L30.8823 17.8749C30.8823 17.7923 30.8845 17.6684 30.8779 17.564C30.813 17.5594 30.726 17.5559 30.6038 17.5559H30.0654V18.7791C30.0654 19.3402 29.6284 19.7958 29.0901 19.7958H27.6765C27.4938 19.7958 27.3341 19.7292 27.1866 19.6386C27.0424 19.7292 26.8806 19.7958 26.6978 19.7958H21.9816C21.7823 19.7958 21.6095 19.7177 21.4553 19.6133C21.3001 19.7177 21.1273 19.7958 20.9291 19.7958H19.4814C18.942 19.7958 18.5061 19.3414 18.5061 18.7803V18.755L18.3189 19.191C18.1626 19.5594 17.8147 19.7969 17.4272 19.7969H16.1865C15.8012 19.7969 15.4511 19.5582 15.2958 19.1899ZM54.2642 30.3936H51.5142C51.1113 30.3936 50.7667 30.1377 50.617 29.7751C50.0808 30.171 49.3718 30.3936 48.4944 30.3936H45.7444C45.5892 30.3936 45.4505 30.3488 45.3206 30.2834C45.1917 30.3488 45.0519 30.3936 44.8978 30.3936H40.186C40.0285 30.3936 39.8843 30.3488 39.7544 30.2788C39.6234 30.3465 39.4814 30.3936 39.3251 30.3936H37.9082C37.3677 30.3936 36.9317 29.938 36.9317 29.3769V28.4819C36.9339 28.3947 36.9339 28.2616 36.9273 28.1526C36.8624 28.148 36.771 28.1434 36.6411 28.1434H36.1083V29.3769C36.1083 29.9392 35.6712 30.3936 35.1329 30.3936H33.7138C33.1733 30.3936 32.7373 29.938 32.7373 29.3769V27.8118C32.2364 28.1228 31.5451 28.327 30.5917 28.327H29.8067V29.3769C29.8067 29.9392 29.3697 30.3936 28.8302 30.3936H26.0857C25.8072 30.3936 25.5408 30.2697 25.3558 30.0528L24.3331 28.8526L23.2553 30.0688C23.0704 30.2765 22.8117 30.3959 22.5397 30.3959H16.9461C16.4066 30.3959 15.9707 29.9392 15.9707 29.3781V23.2197C15.9707 22.6563 16.4077 22.2019 16.9461 22.2019H22.6245C22.903 22.2019 23.1661 22.3236 23.35 22.5393L24.376 23.7292L25.445 22.5267C25.6299 22.319 25.8887 22.2019 26.1606 22.2019H30.672C31.6606 22.2019 32.3564 22.4303 32.8507 22.7676C33.0103 22.4349 33.3318 22.2019 33.7138 22.2019H36.9747C37.7255 22.2019 38.4521 22.2318 39.1335 22.6116C39.2073 22.6563 39.2546 22.7149 39.3229 22.7631C39.4836 22.4337 39.8018 22.2019 40.1827 22.2019H44.8945C45.26 22.2019 45.5683 22.4211 45.7356 22.7321C46.2002 22.4039 46.8167 22.2019 47.5939 22.2019H50.4232C50.8493 22.2019 51.1993 22.4877 51.3347 22.8812C51.8191 22.4716 52.4808 22.2019 53.3626 22.2019H56.1941C56.7324 22.2019 57.1684 22.6575 57.1684 23.2197V24.5301C57.1684 24.8893 56.9922 25.2048 56.7225 25.3861C56.7302 25.3953 56.7412 25.4056 56.7512 25.416C57.2355 25.9346 57.4557 26.5749 57.4557 27.4355C57.4557 29.2874 56.2635 30.3959 54.2642 30.3936Z" fill="black"/>
<path d="M32.3531 15.9212C32.7208 15.7698 33.3483 15.2614 33.3483 14.2804C33.3483 13.593 33.0797 13.1914 32.635 12.916C32.177 12.6406 31.6453 12.6211 30.9242 12.6211H27.6765V18.7796H29.0901V16.5409H30.6038C31.1124 16.5409 31.4273 16.5879 31.6331 16.8037C31.8897 17.0997 31.8555 17.6321 31.8555 18.0028L31.8621 18.7796H33.2867V17.569C33.2867 17.0194 33.2526 16.7463 33.0522 16.4399C32.9267 16.2598 32.6625 16.044 32.3531 15.9212ZM31.5032 15.1456C31.3073 15.2683 31.0783 15.2718 30.8042 15.2718H29.0879L29.089 13.9051H30.8284C31.0728 13.9051 31.3304 13.9177 31.4977 14.0164C31.6805 14.1059 31.7939 14.2964 31.7939 14.5603C31.7939 14.8288 31.6849 15.0457 31.5032 15.1456Z" fill="black"/>
<path d="M35.6129 12.6216H34.1719V18.7801H35.6129V12.6216Z" fill="black"/>
<path d="M50.8801 12.6216V16.9109L48.3964 12.6216H46.2464V18.4462L43.8553 12.6216H41.7404L39.7456 17.464H39.1126C38.7438 17.464 38.3453 17.3905 38.1284 17.1461C37.8631 16.8363 37.7398 16.3601 37.7398 15.7014C37.7398 15.0542 37.9038 14.5654 38.1449 14.3061C38.4245 14.0215 38.7141 13.9412 39.2326 13.9412H40.5702V12.6216H39.204C38.2308 12.6216 37.5141 12.8476 37.0594 13.3388C36.4539 13.9986 36.2987 14.8339 36.2987 15.7473C36.2987 16.8661 36.5585 17.5753 37.0561 18.0985C37.5471 18.6206 38.4157 18.779 39.1038 18.7801H40.7573L41.288 17.4066H44.2207L44.7712 18.7801H47.6456V14.1581L50.3252 18.7801H52.3244V12.6216H50.8801ZM41.7933 16.1214L42.7632 13.6669L43.7419 16.1214H41.7933Z" fill="black"/>
<path d="M39.2359 14.9571C38.9035 14.9559 38.8693 14.9926 38.8286 15.0328C38.8154 15.0523 38.7163 15.2737 38.7163 15.7006C38.7163 16.1229 38.7813 16.326 38.8286 16.4177C38.8781 16.4315 38.9695 16.4476 39.106 16.4476L39.7181 14.9571H39.2359Z" fill="black"/>
<path d="M44.8967 24.4929V23.2192H40.1848V29.3786H44.8967V28.1016L41.5896 28.0935V26.8704H44.8152V25.6128H41.5896V24.4929H44.8967Z" fill="black"/>
<path d="M30.672 23.2212H26.1605L24.3639 25.2383L22.6245 23.2212H16.946V29.3793H22.5397L24.3474 27.3404L26.0868 29.3793H28.8313V27.314H30.5927C31.8268 27.314 33.051 26.9606 33.051 25.2498C33.051 23.5448 31.7927 23.2189 30.672 23.2212ZM21.8252 28.0976H18.3552V26.8722H21.4542V25.6147H18.3552V24.4948H21.8946L23.4391 26.2882L21.8252 28.0976ZM27.4244 28.8194L25.2556 26.3089L27.4244 23.881V28.8194ZM30.6544 26.061H28.8313V24.4925H30.672C31.1828 24.4925 31.5351 24.7094 31.5351 25.2487C31.5351 25.7822 31.1982 26.0633 30.6544 26.061Z" fill="black"/>
<path d="M38.4004 26.5157C38.7703 26.362 39.4011 25.8617 39.4033 24.8761C39.4033 24.1739 39.1226 23.7883 38.6789 23.5084C38.2121 23.2502 37.6925 23.2192 36.978 23.2192H33.7183V29.3773H35.1362V27.1284H36.6444C37.1597 27.1284 37.4734 27.1812 37.6804 27.4015C37.9424 27.6884 37.9083 28.2368 37.9083 28.6074V29.3773H39.3251V28.1565C39.3207 27.6138 39.2921 27.3338 39.0906 27.0332C38.9717 26.8553 38.713 26.635 38.4004 26.5157ZM37.5494 25.7504C37.36 25.8674 37.1255 25.8778 36.8503 25.8778H35.134V24.494H36.8734C37.1222 24.494 37.3754 24.4997 37.5472 24.6053C37.7299 24.7051 37.8389 24.8967 37.8389 25.1595C37.8389 25.4222 37.7299 25.6368 37.5494 25.7504Z" fill="black"/>
<path d="M50.2934 26.1261C49.9686 25.791 49.4424 25.6533 48.6762 25.635L47.9176 25.612C47.6766 25.612 47.518 25.596 47.3672 25.542C47.19 25.472 47.0589 25.316 47.0589 25.083C47.0589 24.888 47.1162 24.74 47.2725 24.639C47.4134 24.5391 47.5797 24.5277 47.8384 24.5277H50.4277V23.2173H47.5984C46.1166 23.2173 45.5793 24.1559 45.5793 25.0509C45.5793 26.9981 47.234 26.9109 48.5529 26.9557C48.8006 26.9557 48.9481 26.9981 49.056 27.0922C49.1551 27.1794 49.2277 27.3194 49.2277 27.4996C49.2277 27.6671 49.1595 27.8071 49.0626 27.9012C48.9437 28.0182 48.7532 28.0538 48.4868 28.0538H45.7478V29.3745H48.4978C49.9213 29.3745 50.7172 28.756 50.7172 27.4307C50.7172 26.7985 50.5686 26.4221 50.2934 26.1261Z" fill="black"/>
<path d="M18.5765 12.6201L16.88 16.7978L15.0316 12.6201H12.7264V18.4512L10.3231 12.6201H8.227L5.69824 18.7782H7.23179L7.78004 17.4048H10.7194L11.2622 18.7782H14.1355V13.9511L16.1865 18.7771L17.4294 18.7782L19.4771 13.9557L19.4826 18.7782H20.9302V12.6201H18.5765ZM8.28315 16.122L9.24313 13.6677L10.2086 16.122H8.28315Z" fill="black"/>
<path d="M26.6967 13.903V12.6201H21.9805V18.78H26.6967V17.5062H23.3918V16.2749H26.6185V15.0138H23.3918V13.903H26.6967Z" fill="black"/>
<path d="M56.0619 26.1261C55.7394 25.791 55.212 25.6533 54.4458 25.635L53.6862 25.612C53.4473 25.612 53.2877 25.596 53.1358 25.542C52.9607 25.472 52.8286 25.316 52.8286 25.083C52.8286 24.888 52.8859 24.74 53.0411 24.639C53.1831 24.5391 53.3504 24.5277 53.608 24.5277H56.1984V23.2173H53.3669C51.8873 23.2173 51.3479 24.1559 51.3479 25.0509C51.3479 26.9981 53.0036 26.9109 54.3236 26.9557C54.5702 26.9557 54.7166 26.9981 54.8267 27.0922C54.9236 27.1794 54.9974 27.3194 54.9974 27.4996C54.9974 27.6671 54.928 27.8071 54.8333 27.9012C54.7133 28.0182 54.5229 28.0538 54.2565 28.0538H51.5185V29.3745H54.2686C55.692 29.3745 56.4858 28.756 56.4858 27.4307C56.4858 26.7985 56.3394 26.4221 56.0619 26.1261Z" fill="black"/>
</svg>
