<svg width="30" height="25" viewBox="0 0 30 25" fill="none" xmlns="http://www.w3.org/2000/svg">
<path d="M11.64 0.919999C12.7067 1.18667 13.4 2.04 13.72 3.47999C12.1733 4.33333 10.6 5.61333 9 7.32C7.4 9.02666 6.28 10.8933 5.64 12.92H5.88C7.90667 12.92 9.48 13.4533 10.6 14.52C11.7733 15.5333 12.36 16.8667 12.36 18.52C12.36 20.0667 11.7733 21.3733 10.6 22.44C9.48 23.5067 8.12 24.04 6.52 24.04C4.6 24.04 3.08 23.3733 1.96 22.04C0.84 20.6533 0.28 19 0.28 17.08C0.28 13.8267 1.32 10.92 3.4 8.36C5.48 5.8 8.22667 3.32 11.64 0.919999ZM27.64 0.919999C28.7067 1.18667 29.4 2.04 29.72 3.47999C28.1733 4.33333 26.6 5.61333 25 7.32C23.4 9.02666 22.28 10.8933 21.64 12.92H21.88C23.9067 12.92 25.48 13.4533 26.6 14.52C27.7733 15.5333 28.36 16.8667 28.36 18.52C28.36 20.0667 27.7733 21.3733 26.6 22.44C25.48 23.5067 24.12 24.04 22.52 24.04C20.6 24.04 19.08 23.3733 17.96 22.04C16.84 20.6533 16.28 19 16.28 17.08C16.28 13.8267 17.32 10.92 19.4 8.36C21.48 5.8 24.2267 3.32 27.64 0.919999Z" fill="white"/>
</svg>
