<svg width="61" height="61" viewBox="0 0 61 61" fill="none" xmlns="http://www.w3.org/2000/svg">
<path d="M58.1406 1.90625H2.85938C2.60659 1.90625 2.36416 2.00667 2.18541 2.18541C2.00667 2.36416 1.90625 2.60659 1.90625 2.85938C1.90953 5.639 3.01518 8.30383 4.98067 10.2693C6.94617 12.2348 9.611 13.3405 12.3906 13.3438H24.7812V17.1562H22.875C22.6222 17.1562 22.3798 17.2567 22.201 17.4354C22.0223 17.6142 21.9219 17.8566 21.9219 18.1094V22.875H17.7091C16.5361 22.8749 15.4044 23.3073 14.5304 24.0895C13.6564 24.8717 13.1015 25.9488 12.972 27.1145L10.0069 53.802C9.93286 54.4682 10.0002 55.1425 10.2045 55.7808C10.4089 56.4192 10.7455 57.0073 11.1926 57.5067C11.6396 58.0061 12.187 58.4056 12.7989 58.679C13.4109 58.9525 14.0736 59.0938 14.7439 59.0938H46.2561C46.9264 59.0938 47.5891 58.9525 48.2011 58.679C48.813 58.4056 49.3604 58.0061 49.8074 57.5067C50.2545 57.0073 50.5911 56.4192 50.7955 55.7808C50.9998 55.1425 51.0671 54.4682 50.9931 53.802L48.028 27.1145C47.8985 25.9488 47.3436 24.8717 46.4696 24.0895C45.5956 23.3073 44.4639 22.8749 43.2909 22.875H39.0781V18.1094C39.0781 17.8566 38.9777 17.6142 38.799 17.4354C38.6202 17.2567 38.3778 17.1562 38.125 17.1562H36.2188V13.3438H48.6094C51.389 13.3405 54.0538 12.2348 56.0193 10.2693C57.9848 8.30383 59.0905 5.639 59.0938 2.85938C59.0938 2.60659 58.9933 2.36416 58.8146 2.18541C58.6358 2.00667 58.3934 1.90625 58.1406 1.90625ZM43.2909 24.7812C43.9942 24.7816 44.6727 25.0412 45.1967 25.5103C45.7207 25.9794 46.0534 26.6252 46.1313 27.3242L49.0974 54.0117C49.1414 54.4113 49.1008 54.8157 48.9783 55.1987C48.8558 55.5816 48.6541 55.9345 48.3863 56.2344C48.1197 56.5358 47.7916 56.7768 47.4242 56.9412C47.0569 57.1056 46.6586 57.1895 46.2561 57.1875H14.7439C14.3414 57.1895 13.9431 57.1056 13.5758 56.9412C13.2084 56.7768 12.8803 56.5358 12.6137 56.2344C12.3456 55.9345 12.1436 55.5815 12.021 55.1983C11.8983 54.8152 11.8577 54.4106 11.9017 54.0107L14.8678 27.3232C14.9459 26.6243 15.2788 25.9786 15.803 25.5096C16.3271 25.0407 17.0057 24.7814 17.7091 24.7812H43.2909ZM37.1719 19.0625V22.875H35.2656V20.9688H33.3594V22.875H31.4531V20.9688H29.5469V22.875H27.6406V20.9688H25.7344V22.875H23.8281V19.0625H37.1719ZM26.6875 17.1562V13.3438H34.3125V17.1562H26.6875ZM48.6094 11.4375H12.3906C10.2814 11.4349 8.24677 10.6563 6.67464 9.25014C5.1025 7.84394 4.10273 5.90843 3.86588 3.8125H57.1341C56.8973 5.90843 55.8975 7.84394 54.3254 9.25014C52.7532 10.6563 50.7186 11.4349 48.6094 11.4375Z" fill="#F1BA24"/>
<path d="M19.0625 40.9844C19.0625 43.2465 19.7333 45.4578 20.9901 47.3387C22.2468 49.2196 24.0331 50.6856 26.1231 51.5512C28.213 52.4169 30.5127 52.6434 32.7313 52.2021C34.95 51.7608 36.988 50.6715 38.5875 49.0719C40.1871 47.4723 41.2764 45.4344 41.7177 43.2157C42.159 40.9971 41.9325 38.6974 41.0669 36.6074C40.2012 34.5175 38.7352 32.7312 36.8543 31.4744C34.9734 30.2177 32.7621 29.5469 30.5 29.5469C27.4676 29.5502 24.5603 30.7562 22.4161 32.9005C20.2719 35.0447 19.0658 37.952 19.0625 40.9844ZM30.5 40.0312C30.6885 40.0312 30.8728 40.0871 31.0295 40.1919C31.1863 40.2966 31.3084 40.4455 31.3806 40.6196C31.4527 40.7938 31.4716 40.9854 31.4348 41.1703C31.398 41.3552 31.3073 41.525 31.174 41.6583C31.0407 41.7916 30.8708 41.8824 30.6859 41.9192C30.5011 41.956 30.3094 41.9371 30.1353 41.8649C29.9611 41.7928 29.8122 41.6706 29.7075 41.5139C29.6028 41.3572 29.5469 41.1729 29.5469 40.9844C29.5469 40.7316 29.6473 40.4892 29.826 40.3104C30.0048 40.1317 30.2472 40.0312 30.5 40.0312ZM29.5469 31.5017V38.3004C28.9109 38.5252 28.375 38.9676 28.0337 39.5494C27.6924 40.1312 27.5677 40.8149 27.6818 41.4797C27.7959 42.1445 28.1413 42.7476 28.657 43.1824C29.1727 43.6171 29.8255 43.8556 30.5 43.8556C31.1745 43.8556 31.8273 43.6171 32.343 43.1824C32.8587 42.7476 33.2041 42.1445 33.3182 41.4797C33.4323 40.8149 33.3076 40.1312 32.9663 39.5494C32.625 38.9676 32.0891 38.5252 31.4531 38.3004V31.5017C33.8861 31.7463 36.132 32.9165 37.7264 34.7704C39.3208 36.6244 40.1417 39.0202 40.0193 41.4624C39.8969 43.9045 38.8405 46.2062 37.0687 47.8915C35.2969 49.5767 32.9452 50.5165 30.5 50.5165C28.0548 50.5165 25.7031 49.5767 23.9313 47.8915C22.1595 46.2062 21.1031 43.9045 20.9807 41.4624C20.8583 39.0202 21.6792 36.6244 23.2736 34.7704C24.868 32.9165 27.1139 31.7463 29.5469 31.5017Z" fill="#F1BA24"/>
<path d="M20.9688 7.625H9.53125V9.53125H20.9688V7.625Z" fill="#F1BA24"/>
</svg>
