<svg width="64" height="42" viewBox="0 0 64 42" fill="none" xmlns="http://www.w3.org/2000/svg">
<path d="M7.83675 0H1.30613C0.58475 0 0 0.584749 0 1.30612V7.83674C0 8.55812 0.58475 9.14287 1.30613 9.14287C2.0275 9.14287 2.61225 8.55812 2.61225 7.83674V2.61225H7.83675C8.55812 2.61225 9.14287 2.0275 9.14287 1.30612C9.14287 0.584749 8.55812 0 7.83675 0Z" fill="black"/>
<path d="M62.6939 0H56.1633C55.4419 0 54.8572 0.584749 54.8572 1.30612C54.8572 2.0275 55.4419 2.61225 56.1633 2.61225H61.3878V7.83674C61.3878 8.55812 61.9726 9.14287 62.6939 9.14287C63.4153 9.14287 64.0001 8.55812 64.0001 7.83674V1.30612C64.0001 0.584749 63.4153 0 62.6939 0Z" fill="black"/>
<path d="M62.6939 32.6528C61.9726 32.6528 61.3878 33.2376 61.3878 33.959V39.1835H56.1633C55.4419 39.1835 54.8572 39.7682 54.8572 40.4896C54.8572 41.211 55.4419 41.7957 56.1633 41.7957H62.6939C63.4153 41.7957 64.0001 41.211 64.0001 40.4896V33.959C64.0001 33.2376 63.4153 32.6528 62.6939 32.6528Z" fill="black"/>
<path d="M7.83675 39.1835H2.61225V33.959C2.61225 33.2376 2.0275 32.6528 1.30613 32.6528C0.58475 32.6528 0 33.2376 0 33.959V40.4896C0 41.211 0.58475 41.7957 1.30613 41.7957H7.83675C8.55812 41.7957 9.14287 41.211 9.14287 40.4896C9.14287 39.7682 8.55812 39.1835 7.83675 39.1835Z" fill="black"/>
<path d="M58.7755 35.2655V6.53074C58.7755 5.80936 58.1907 5.22461 57.4693 5.22461C56.748 5.22461 56.1632 5.80936 56.1632 6.53074V35.2655C56.1632 35.9869 56.748 36.5716 57.4693 36.5716C58.1907 36.5716 58.7755 35.9869 58.7755 35.2655Z" fill="black"/>
<path d="M51.102 5.22461C50.3806 5.22461 49.7959 5.80936 49.7959 6.53074V29.0836C49.7959 29.805 50.3806 30.3897 51.102 30.3897C51.8234 30.3897 52.4081 29.805 52.4081 29.0836V6.53074C52.4081 5.80936 51.8234 5.22461 51.102 5.22461Z" fill="black"/>
<path d="M51.102 33.6553C50.3806 33.6553 49.7959 34.24 49.7959 34.9614V35.2658C49.7959 35.9871 50.3806 36.5719 51.102 36.5719C51.8234 36.5719 52.4081 35.9871 52.4081 35.2658V34.9614C52.4081 34.24 51.8234 33.6553 51.102 33.6553Z" fill="black"/>
<path d="M44.7347 5.22461C44.0133 5.22461 43.4286 5.80936 43.4286 6.53074V29.0836C43.4286 29.805 44.0133 30.3897 44.7347 30.3897C45.4561 30.3897 46.0408 29.805 46.0408 29.0836V6.53074C46.0408 5.80936 45.4561 5.22461 44.7347 5.22461Z" fill="black"/>
<path d="M44.7347 33.6553C44.0133 33.6553 43.4286 34.24 43.4286 34.9614V35.2658C43.4286 35.9871 44.0133 36.5719 44.7347 36.5719C45.4561 36.5719 46.0408 35.9871 46.0408 35.2658V34.9614C46.0408 34.24 45.4561 33.6553 44.7347 33.6553Z" fill="black"/>
<path d="M38.3674 5.22461C37.646 5.22461 37.0613 5.80936 37.0613 6.53074V29.0836C37.0613 29.805 37.646 30.3897 38.3674 30.3897C39.0888 30.3897 39.6735 29.805 39.6735 29.0836V6.53074C39.6735 5.80936 39.0888 5.22461 38.3674 5.22461Z" fill="black"/>
<path d="M38.3674 33.6553C37.646 33.6553 37.0613 34.24 37.0613 34.9614V35.2658C37.0613 35.9871 37.646 36.5719 38.3674 36.5719C39.0888 36.5719 39.6735 35.9871 39.6735 35.2658V34.9614C39.6735 34.24 39.0888 33.6553 38.3674 33.6553Z" fill="black"/>
<path d="M32 5.22461C31.2786 5.22461 30.6938 5.80936 30.6938 6.53074V29.0836C30.6938 29.805 31.2786 30.3897 32 30.3897C32.7213 30.3897 33.3061 29.805 33.3061 29.0836V6.53074C33.3061 5.80936 32.7213 5.22461 32 5.22461Z" fill="black"/>
<path d="M32 33.6553C31.2786 33.6553 30.6938 34.24 30.6938 34.9614V35.2658C30.6938 35.9871 31.2786 36.5719 32 36.5719C32.7213 36.5719 33.3061 35.9871 33.3061 35.2658V34.9614C33.3061 34.24 32.7213 33.6553 32 33.6553Z" fill="black"/>
<path d="M25.6327 5.22461C24.9113 5.22461 24.3265 5.80936 24.3265 6.53074V29.0836C24.3265 29.805 24.9113 30.3897 25.6327 30.3897C26.354 30.3897 26.9388 29.805 26.9388 29.0836V6.53074C26.9388 5.80936 26.354 5.22461 25.6327 5.22461Z" fill="black"/>
<path d="M25.6327 33.6553C24.9113 33.6553 24.3265 34.24 24.3265 34.9614V35.2658C24.3265 35.9871 24.9113 36.5719 25.6327 36.5719C26.354 36.5719 26.9388 35.9871 26.9388 35.2658V34.9614C26.9388 34.24 26.354 33.6553 25.6327 33.6553Z" fill="black"/>
<path d="M19.2652 5.22461C18.5439 5.22461 17.9591 5.80936 17.9591 6.53074V29.0836C17.9591 29.805 18.5439 30.3897 19.2652 30.3897C19.9866 30.3897 20.5714 29.805 20.5714 29.0836V6.53074C20.5714 5.80936 19.9866 5.22461 19.2652 5.22461Z" fill="black"/>
<path d="M19.2652 33.6553C18.5439 33.6553 17.9591 34.24 17.9591 34.9614V35.2658C17.9591 35.9871 18.5439 36.5719 19.2652 36.5719C19.9866 36.5719 20.5714 35.9871 20.5714 35.2658V34.9614C20.5714 34.24 19.9866 33.6553 19.2652 33.6553Z" fill="black"/>
<path d="M12.898 5.22461C12.1767 5.22461 11.5919 5.80936 11.5919 6.53074V29.0836C11.5919 29.805 12.1767 30.3897 12.898 30.3897C13.6194 30.3897 14.2042 29.805 14.2042 29.0836V6.53074C14.2042 5.80936 13.6194 5.22461 12.898 5.22461Z" fill="black"/>
<path d="M12.898 33.6553C12.1767 33.6553 11.5919 34.24 11.5919 34.9614V35.2658C11.5919 35.9871 12.1767 36.5719 12.898 36.5719C13.6194 36.5719 14.2042 35.9871 14.2042 35.2658V34.9614C14.2042 34.24 13.6194 33.6553 12.898 33.6553Z" fill="black"/>
<path d="M7.83674 35.2655V6.53074C7.83674 5.80936 7.25199 5.22461 6.53061 5.22461C5.80924 5.22461 5.22449 5.80936 5.22449 6.53074V35.2655C5.22449 35.9869 5.80924 36.5716 6.53061 36.5716C7.25199 36.5716 7.83674 35.9869 7.83674 35.2655Z" fill="black"/>
</svg>
