<svg width="64" height="48" viewBox="0 0 64 48" fill="none" xmlns="http://www.w3.org/2000/svg">
<path d="M61.0909 0H2.90909C1.3025 0 0 1.3023 0 2.90909V44.4674C0 46.0742 1.3025 47.3765 2.90909 47.3765H61.0909C62.6975 47.3765 64 46.0742 64 44.4674V2.90909C64 1.3023 62.6975 0 61.0909 0ZM43.9988 32.838C41.4575 35.2186 38.0635 36.5841 34.687 36.5841C34.6868 36.5841 34.6866 36.5841 34.6866 36.5841L34.6226 36.5838L28.8657 36.5841C21.7313 36.5841 15.9269 30.8455 15.9269 23.7917C15.9269 16.3811 21.5108 10.7925 28.9156 10.7925H34.6265C38.0819 10.7925 41.485 12.1069 43.974 14.3986C46.6172 16.8322 48.0727 20.168 48.0727 23.7919C48.0729 27.1639 46.6261 30.3765 43.9988 32.838Z" fill="black"/>
<path d="M28.9532 13.3472C23.2636 13.3472 18.635 17.9761 18.635 23.6659C18.635 29.3559 23.2636 33.9848 28.9532 33.9848C34.6401 33.9848 39.2669 29.3559 39.2669 23.6659C39.2669 17.9761 34.6401 13.3472 28.9532 13.3472ZM26.4347 30.2276C23.7938 29.2133 21.9283 26.6605 21.9229 23.6659C21.9281 20.6726 23.7936 18.12 26.4347 17.0987V30.2276ZM31.4684 30.2276V17.0987C34.1085 18.1146 35.979 20.6728 35.9846 23.6659C35.979 26.6605 34.1085 29.2131 31.4684 30.2276Z" fill="black"/>
</svg>
