<svg width="62" height="32" viewBox="0 0 62 32" fill="none" xmlns="http://www.w3.org/2000/svg">
<path d="M18.2255 13.8222C17.1706 12.5188 15.6963 11.6232 14.0548 11.2888C12.4134 10.9545 10.707 11.2021 9.22775 11.9894C6.51925 13.4262 4.53291 17.2356 5.31844 19.4527L18.2255 13.8222ZM24.89 15.7937L2.08626 25.7615C-0.128567 22.6422 -0.962464 17.2423 1.50253 12.5808C4.07927 7.71057 9.40454 5.05907 14.7448 5.98467C20.4853 7.00383 24.0428 11.5917 24.8883 15.7971L24.89 15.7937ZM27.2216 0.00167064H32.0632V0.462801C32.0632 8.46909 32.0648 16.4771 32.0565 24.485C32.0565 24.8025 32.1532 24.9361 32.4301 25.0497C33.6309 25.5393 34.8217 26.0539 36.0125 26.5601C36.0976 26.5969 36.1793 26.6386 36.301 26.6988L34.2947 31.6292C33.6442 31.3552 33.0338 31.0996 32.4267 30.8389C31.7263 30.5432 31.0291 30.2408 30.3287 29.9467C28.3473 29.118 27.3817 27.5642 27.2316 25.4273C27.2216 25.297 27.2216 25.165 27.2216 25.0347V0V0.00167064V0.00167064Z" fill="black"/>
<path d="M45.6155 30.9216L47.2666 25.8926C49.388 26.5575 51.4244 26.3938 53.339 25.2577C55.242 24.1266 56.4011 22.4174 56.9031 20.2153L61.9815 21.2779C60.6306 28.8966 52.5702 33.4845 45.6172 30.9216" fill="black"/>
<path d="M47.2701 11.5315L45.6306 6.52259C51.8498 4.04986 60.3489 7.8592 62 16.1562L56.9066 17.2205C56.3979 15.0167 55.2471 13.3025 53.3425 12.1714C51.4379 11.0437 49.4132 10.8682 47.2701 11.5299" fill="black"/>
<path d="M41.301 28.3811C35.6172 23.4073 35.5588 14.0911 41.2943 9.04541L44.7417 13.0252C43.1106 14.5623 42.235 16.4603 42.2383 18.7141C42.2383 20.9579 43.1006 22.8526 44.745 24.3997L41.301 28.3811" fill="black"/>
<path d="M17.8303 24.1274L21.4327 27.91C17.4467 32.1605 10.5454 32.8037 5.89722 29.6009L8.64074 25.1282C11.9263 26.9694 14.9667 26.6252 17.8303 24.1274" fill="black"/>
</svg>