<svg width="49" height="49" viewBox="0 0 49 49" fill="none" xmlns="http://www.w3.org/2000/svg">
<g clip-path="url(#clip0)">
<path d="M45.6997 0H3.29765C1.47929 0 0 1.47929 0 3.29765V20.2476C0 20.7758 0.428047 21.2038 0.956284 21.2038C1.48452 21.2038 1.91257 20.7758 1.91257 20.2476V3.29765C1.91257 2.53389 2.53389 1.91257 3.29727 1.91257H45.6997C46.4646 1.91257 47.0871 2.53389 47.0871 3.29765V45.6997C47.0871 46.465 46.4646 47.0874 45.6997 47.0874H3.29765C2.53389 47.0874 1.91257 46.465 1.91257 45.6997V28.5408C1.91257 28.0126 1.48452 27.5846 0.956284 27.5846C0.428421 27.5846 0 28.0126 0 28.5408V45.6997C0 47.5196 1.47929 49 3.29765 49H45.6997C47.5196 49 49 47.5196 49 45.6997V3.29765C49 1.47929 47.5196 0 45.6997 0V0Z" fill="#F1BA24"/>
<path d="M4.66626 15.5353V42.241C4.66626 43.5819 5.75713 44.6728 7.09809 44.6728H42.3303C43.6713 44.6728 44.7625 43.5819 44.7625 42.241V15.5353C44.7625 14.1958 43.6713 13.1057 42.3303 13.1057H7.09809C5.75713 13.1061 4.66626 14.1958 4.66626 15.5353ZM20.0685 25.4387C20.5967 25.4387 21.0248 25.0107 21.0248 24.4824V22.9482C21.7904 22.7785 22.5885 22.6644 23.3957 22.6087V22.9904C23.3957 23.5187 23.8241 23.9467 24.3519 23.9467C24.8802 23.9467 25.3082 23.5183 25.3082 22.9904V22.5721C26.2021 22.5915 27.0675 22.6816 27.8855 22.8319V24.4824C27.8855 25.0107 28.3135 25.4387 28.8418 25.4387C29.37 25.4387 29.798 25.0107 29.798 24.4824V23.3202C32.2351 24.1355 33.9462 25.5385 34.1765 27.1505H15.2859C15.4979 25.6783 16.892 24.3703 19.1122 23.5172V24.4824C19.1122 25.0107 19.5402 25.4387 20.0685 25.4387ZM42.8499 29.0631V30.8018H6.57883V29.0631H42.8499ZM42.3303 42.7602H7.09809C6.81659 42.7602 6.57883 42.5225 6.57883 42.241V32.7148H42.8499V42.241C42.8499 42.5225 42.6122 42.7602 42.3303 42.7602ZM42.8499 15.5353V27.1505H36.0999C36.0984 27.1288 36.0969 27.1094 36.0958 27.0952C35.8015 24.0465 32.7716 22.0345 29.1644 21.1579C29.0971 21.1336 29.0268 21.1164 28.9532 21.1078C27.6451 20.8076 26.2675 20.6547 24.9213 20.6547C24.8585 20.6547 24.7949 20.655 24.7321 20.6558C24.6065 20.6543 24.4805 20.6547 24.3549 20.6562C24.3538 20.6562 24.3531 20.6558 24.3519 20.6558C24.3504 20.6558 24.349 20.6562 24.3471 20.6562C22.7994 20.6722 21.2416 20.8842 19.8139 21.2764C19.8049 21.279 19.7963 21.2816 19.7874 21.2842C19.7859 21.2846 19.7844 21.285 19.7829 21.2853C16.0123 22.3351 13.6141 24.5063 13.3648 27.1053C13.3637 27.118 13.3625 27.1333 13.3614 27.1505H6.57883V15.5353C6.57883 15.2553 6.81659 15.0187 7.09809 15.0187H42.3303C42.6122 15.0187 42.8499 15.2553 42.8499 15.5353Z" fill="#F1BA24"/>
<path d="M35.2273 11.1158C35.4423 11.1554 35.6573 11.1748 35.8711 11.1748C36.5743 11.1748 37.2595 10.9629 37.8495 10.5565C38.6233 10.0264 39.1437 9.22637 39.3153 8.30448C39.4865 7.38222 39.288 6.44837 38.7564 5.67526C37.6618 4.08158 35.4726 3.67484 33.874 4.7702C32.2811 5.86817 31.8755 8.05737 32.9694 9.65031C32.9697 9.65031 32.9697 9.65031 32.9697 9.65068C33.5024 10.4249 34.3043 10.9453 35.2273 11.1158ZM34.9574 6.34631C35.6842 5.84798 36.6812 6.03265 37.1799 6.75828C37.4222 7.11081 37.5126 7.53549 37.4345 7.95494C37.3567 8.37402 37.1201 8.73776 36.7661 8.98039C36.4158 9.22189 35.993 9.31236 35.5743 9.2346C35.1537 9.15721 34.7885 8.91982 34.5455 8.56655C34.0479 7.84167 34.2337 6.84501 34.9574 6.34631Z" fill="#F1BA24"/>
<path d="M23.6884 11.1147C23.9045 11.1551 24.1213 11.1749 24.3367 11.1749C25.0398 11.1749 25.7258 10.9629 26.318 10.5562C27.9117 9.4612 28.3184 7.27199 27.2231 5.67382C26.1251 4.08089 23.9359 3.67527 22.3426 4.7695C21.568 5.30222 21.0476 6.10374 20.8775 7.0275C20.7074 7.94827 20.9063 8.87988 21.4371 9.65073C21.9676 10.4235 22.7669 10.9435 23.6884 11.1147ZM22.7583 7.37405C22.8357 6.95348 23.0731 6.58823 23.426 6.34561C23.7011 6.15645 24.0152 6.06635 24.3266 6.06635C24.8357 6.06635 25.3371 6.30823 25.6466 6.75721C26.1449 7.48433 25.9602 8.48136 25.2346 8.97969C24.8825 9.22194 24.457 9.31241 24.038 9.23428C23.6189 9.15652 23.2551 8.91988 23.014 8.56809C23.0136 8.56734 23.0133 8.5666 23.0125 8.56585C22.7714 8.21593 22.6809 7.79275 22.7583 7.37405Z" fill="#F1BA24"/>
<path d="M12.1599 11.1158C12.3748 11.1554 12.5898 11.1748 12.8036 11.1748C13.5068 11.1748 14.1921 10.9629 14.782 10.5565C15.5555 10.0264 16.0762 9.22637 16.2475 8.30486C16.419 7.38259 16.2205 6.44837 15.6889 5.67526C14.594 4.08158 12.4047 3.67484 10.8066 4.7702C9.21365 5.86817 8.80766 8.05737 9.90189 9.65031C9.90226 9.65031 9.90226 9.65031 9.90226 9.65068C10.4346 10.4249 11.2365 10.9453 12.1599 11.1158ZM11.89 6.34631C12.6167 5.84798 13.6137 6.03265 14.1125 6.75828C14.3547 7.11081 14.4452 7.53549 14.367 7.95494C14.2893 8.37402 14.0526 8.73776 13.6982 8.98039C13.3483 9.22189 12.9251 9.31236 12.5068 9.2346C12.0862 9.15721 11.721 8.91982 11.478 8.56655C10.9804 7.84167 11.1658 6.84501 11.89 6.34631Z" fill="#F1BA24"/>
<path d="M0.956284 25.4548C1.48452 25.4548 1.91257 25.0267 1.91257 24.4985V24.4824C1.91257 23.9542 1.48452 23.5261 0.956284 23.5261C0.428047 23.5261 0 23.9542 0 24.4824V24.4985C0 25.0267 0.428047 25.4548 0.956284 25.4548Z" fill="#F1BA24"/>
</g>
<defs>
<clipPath id="clip0">
<rect width="49" height="49" fill="white"/>
</clipPath>
</defs>
</svg>
