<svg width="512" height="512" viewBox="0 0 512 512" fill="none" xmlns="http://www.w3.org/2000/svg">
<path d="M456.5 105.8H445C440.9 105.8 437.5 109.2 437.5 113.3C437.5 117.4 440.9 120.8 445 120.8H456.5C460.6 120.8 464 117.4 464 113.3C464 109.2 460.7 105.8 456.5 105.8Z" fill="black"/>
<path d="M504.5 151.1C500.4 151.1 497 154.5 497 158.6V170.1C497 174.2 500.4 177.6 504.5 177.6C508.6 177.6 512 174.2 512 170.1V158.6C512 154.5 508.6 151.1 504.5 151.1Z" fill="black"/>
<path d="M504.5 334.4C500.4 334.4 497 337.8 497 341.9V353.4C497 357.5 500.4 360.9 504.5 360.9C508.6 360.9 512 357.5 512 353.4V341.9C512 337.7 508.6 334.4 504.5 334.4Z" fill="black"/>
<path d="M504.5 288.6C500.4 288.6 497 292 497 296.1V307.6C497 311.7 500.4 315.1 504.5 315.1C508.6 315.1 512 311.7 512 307.6V296.1C512 291.9 508.6 288.6 504.5 288.6Z" fill="black"/>
<path d="M504.5 242.7C500.4 242.7 497 246.1 497 250.2V261.7C497 265.8 500.4 269.2 504.5 269.2C508.6 269.2 512 265.8 512 261.7V250.2C512 246.1 508.6 242.7 504.5 242.7Z" fill="black"/>
<path d="M504.4 121.1C501.5 117.3 498 114 494 111.5C490.5 109.3 485.9 110.4 483.7 113.9C481.5 117.4 482.6 122 486.1 124.2C488.6 125.7 490.7 127.7 492.4 130C493.9 132 496.1 133 498.4 133C500 133 501.5 132.5 502.9 131.5C506.2 129.1 506.9 124.4 504.4 121.1Z" fill="black"/>
<path d="M504.5 196.9C500.4 196.9 497 200.3 497 204.4V215.9C497 220 500.4 223.4 504.5 223.4C508.6 223.4 512 220 512 215.9V204.4C512 200.3 508.6 196.9 504.5 196.9Z" fill="black"/>
<path d="M503 380.4C499.7 377.9 495 378.6 492.5 381.9C490.8 384.2 488.6 386.2 486.2 387.7C482.7 389.9 481.6 394.5 483.8 398C485.2 400.3 487.7 401.5 490.2 401.5C491.6 401.5 492.9 401.1 494.2 400.4C498.3 397.9 501.8 394.6 504.6 390.8C507 387.6 506.3 382.9 503 380.4Z" fill="black"/>
<path d="M456.6 391.2H445.1C441 391.2 437.6 394.6 437.6 398.7C437.6 402.8 441 406.2 445.1 406.2H456.6C460.7 406.2 464.1 402.8 464.1 398.7C464.1 394.6 460.7 391.2 456.6 391.2Z" fill="black"/>
<path d="M7.5 298.1C3.4 298.1 0 301.5 0 305.6V317.2C0 321.3 3.4 324.7 7.5 324.7C11.6 324.7 15 321.3 15 317.2V305.6C15 301.5 11.6 298.1 7.5 298.1Z" fill="black"/>
<path d="M60.5 105.8H48.9C44.8 105.8 41.4 109.2 41.4 113.3C41.4 117.4 44.8 120.8 48.9 120.8H60.5C64.6 120.8 68 117.4 68 113.3C68 109.2 64.6 105.8 60.5 105.8Z" fill="black"/>
<path d="M33.5 390.8C30.6 390.2 27.9 389.1 25.5 387.5C22 385.2 17.4 386.2 15.1 389.7C12.8 393.2 13.8 397.8 17.3 400.1C21.4 402.8 25.9 404.6 30.6 405.5C31.1 405.6 31.6 405.6 32.1 405.6C35.6 405.6 38.7 403.1 39.4 399.6C40.2 395.5 37.6 391.6 33.5 390.8Z" fill="black"/>
<path d="M78.4001 391.2H66.8001C62.7001 391.2 59.3 394.6 59.3 398.7C59.3 402.8 62.7001 406.2 66.8001 406.2H78.4001C82.5001 406.2 85.9001 402.8 85.9001 398.7C85.9001 394.6 82.6001 391.2 78.4001 391.2Z" fill="black"/>
<path d="M21.8 116.9C18.9 114 14.1 114 11.2 116.9C7.80003 120.3 5.00003 124.3 3.10003 128.8C1.50003 132.6 3.20003 137 7.00003 138.7C8.00003 139.1 9.00003 139.3 10 139.3C12.9 139.3 15.7 137.6 16.9 134.8C18.1 132.1 19.7 129.7 21.8 127.6C24.7 124.6 24.7 119.8 21.8 116.9Z" fill="black"/>
<path d="M7.5 158.8C3.4 158.8 0 162.2 0 166.3V177.9C0 182 3.4 185.4 7.5 185.4C11.6 185.4 15 182 15 177.9V166.3C15 162.1 11.6 158.8 7.5 158.8Z" fill="black"/>
<path d="M7.5 205.2C3.4 205.2 0 208.6 0 212.7V224.3C0 228.4 3.4 231.8 7.5 231.8C11.6 231.8 15 228.4 15 224.3V212.7C15 208.6 11.6 205.2 7.5 205.2Z" fill="black"/>
<path d="M7.5 251.7C3.4 251.7 0 255.1 0 259.2V270.8C0 274.9 3.4 278.3 7.5 278.3C11.6 278.3 15 274.9 15 270.8V259.2C15 255 11.6 251.7 7.5 251.7Z" fill="black"/>
<path d="M7.5 344.6C3.4 344.6 0 348 0 352.1V363.7C0 367.8 3.4 371.2 7.5 371.2C11.6 371.2 15 367.8 15 363.7V352.1C15 347.9 11.6 344.6 7.5 344.6Z" fill="black"/>
<path d="M414.3 192.9C423 192.9 430.1 186.2 430.1 177.9V161.9C430.1 153.6 423 146.9 414.3 146.9H412.2V120.7C415.6 120 418.2 117 418.2 113.4C418.2 109.8 415.6 106.7 412.2 106.1V38C412.2 17 395.1 0 374.2 0H149.8C128.8 0 111.8 17.1 111.8 38V80.6H109.7C101 80.6 93.9 87.3 93.9 95.6V105.9C90.5 106.6 87.9 109.6 87.9 113.2C87.9 117.3 91.3 120.7 95.4 120.7H97.2C100.1 124.3 104.6 126.6 109.7 126.6H111.8V134.5H109.7C101 134.5 93.9 141.2 93.9 149.5V165.5C93.9 173.8 101 180.5 109.7 180.5H111.8V226C111.8 230.1 115.2 233.5 119.3 233.5C123.4 233.5 126.8 230.1 126.8 226V106.1H397.2V451.1H126.8V258C126.8 253.9 123.4 250.5 119.3 250.5C115.2 250.5 111.8 253.9 111.8 258V391.4C108.4 392.1 105.8 395.1 105.8 398.7C105.8 402.3 108.4 405.4 111.8 406V474C111.8 495 128.9 512 149.8 512H374.2C395.2 512 412.2 494.9 412.2 474V406.1C415.6 405.4 418.2 402.4 418.2 398.8C418.2 395.2 415.6 392.1 412.2 391.5V383.3H414.3C423 383.3 430.1 376.6 430.1 368.3V240.8C430.1 232.5 423 225.8 414.3 225.8H412.2V192.9H414.3ZM111.8 111.7H109.7C109.3 111.7 109 111.6 108.9 111.5V95.9C109 95.8 109.3 95.7 109.7 95.7H111.8V111.7ZM111.8 165.7H109.7C109.3 165.7 109 165.6 108.9 165.5V149.9C109 149.8 109.3 149.7 109.7 149.7H111.8V165.7ZM397.2 474C397.2 486.7 386.9 497 374.2 497H149.8C137.1 497 126.8 486.7 126.8 474V466.1H397.2V474ZM397.2 54.3H346.3C342.2 54.3 338.8 57.7 338.8 61.8C338.8 65.9 342.2 69.3 346.3 69.3H397.2V91.1H126.8V69.3H316.6C320.7 69.3 324.1 65.9 324.1 61.8C324.1 57.7 320.7 54.3 316.6 54.3H126.8V38C126.8 25.3 137.1 15 149.8 15H374.2C386.9 15 397.2 25.3 397.2 38V54.3V54.3ZM414.3 240.8C414.7 240.8 415 240.9 415.1 241V367.9C415 368 414.7 368.1 414.3 368.1H412.2V240.8H414.3ZM412.2 177.9V161.9H414.3C414.7 161.9 415 162 415.1 162.1V177.7C415 177.8 414.7 177.9 414.3 177.9H412.2V177.9Z" fill="black"/>
<path d="M275.2 28H250.2C246.1 28 242.7 31.4 242.7 35.5C242.7 39.6 246.1 43 250.2 43H275.2C279.3 43 282.7 39.6 282.7 35.5C282.7 31.4 279.3 28 275.2 28Z" fill="black"/>
<path d="M222.9 28H221.9C217.8 28 214.4 31.4 214.4 35.5C214.4 39.6 217.8 43 221.9 43H222.9C227 43 230.4 39.6 230.4 35.5C230.4 31.4 227 28 222.9 28Z" fill="black"/>
<path d="M275.2 472.7H250.2C246.1 472.7 242.7 476.1 242.7 480.2C242.7 484.3 246.1 487.7 250.2 487.7H275.2C279.3 487.7 282.7 484.3 282.7 480.2C282.7 476.1 279.3 472.7 275.2 472.7Z" fill="black"/>
<path d="M364.4 262L341.9 239.5C340.5 238.1 338.6 237.3 336.6 237.3C334.6 237.3 332.7 238.1 331.3 239.5L308.8 262C305.9 264.9 305.9 269.7 308.8 272.6C310.3 274.1 312.2 274.8 314.1 274.8C316 274.8 317.9 274.1 319.4 272.6L328.7 263.3C325.1 300.2 293.8 329.2 256 329.2C251.9 329.2 248.5 332.6 248.5 336.7C248.5 340.8 251.9 344.2 256 344.2C302.3 344.2 340.4 308.2 343.8 262.7L353.8 272.7C356.7 275.6 361.5 275.6 364.4 272.7C367.3 269.6 367.3 264.9 364.4 262Z" fill="black"/>
<path d="M256 167.9C209.7 167.9 171.6 203.9 168.2 249.4L158.2 239.4C155.3 236.5 150.5 236.5 147.6 239.4C144.7 242.3 144.7 247.1 147.6 250L170.1 272.5C171.5 273.9 173.4 274.7 175.4 274.7C177.4 274.7 179.3 273.9 180.7 272.5L203.2 250C206.1 247.1 206.1 242.3 203.2 239.4C200.3 236.5 195.5 236.5 192.6 239.4L183.3 248.7C186.9 211.8 218.2 182.8 256 182.8C260.1 182.8 263.5 179.4 263.5 175.3C263.5 171.3 260.1 167.9 256 167.9Z" fill="black"/>
<path d="M301.5 235.4L259.2 206.2C257.6 205.1 255.5 204.6 253.6 205C251.6 205.4 249.9 206.5 248.8 208.1L208.7 266.2C206.3 269.6 207.2 274.3 210.6 276.6L252.9 305.8C254.2 306.7 255.7 307.1 257.2 307.1C257.6 307.1 258.1 307.1 258.5 307C260.5 306.6 262.2 305.5 263.3 303.9L303.4 245.8C305.7 242.4 304.9 237.8 301.5 235.4ZM255.2 289.2L225.3 268.5L256.9 222.8L286.8 243.5L255.2 289.2Z" fill="black"/>
<path d="M316.5 380H295.4C291.3 380 287.9 383.4 287.9 387.5C287.9 391.6 291.3 395 295.4 395H316.5C320.6 395 324 391.6 324 387.5C324 383.4 320.7 380 316.5 380Z" fill="black"/>
<path d="M265.2 380H195.5C191.4 380 188 383.4 188 387.5C188 391.6 191.4 395 195.5 395H265.2C269.3 395 272.7 391.6 272.7 387.5C272.7 383.4 269.3 380 265.2 380Z" fill="black"/>
<path d="M316.5 403.5H195.5C191.4 403.5 188 406.9 188 411C188 415.1 191.4 418.5 195.5 418.5H316.6C320.7 418.5 324.1 415.1 324.1 411C324.1 406.9 320.7 403.5 316.5 403.5Z" fill="black"/>
</svg>
