<svg width="47" height="38" viewBox="0 0 47 38" fill="none" xmlns="http://www.w3.org/2000/svg">
<path d="M40.645 5.8922C41.6778 10.1789 42.6793 14.474 43.6959 18.7643C44.7473 23.2173 45.8475 27.6584 46.8246 32.1268C47.2331 33.9911 46.9639 35.8412 45.6374 37.3315C45.2664 37.7124 44.7698 37.9381 44.2448 37.9644C31.7023 37.9964 19.1597 37.9869 6.61711 38C6.04267 38 5.75255 37.8658 5.60401 37.2436C4.33675 31.8513 3.03236 26.4662 1.73841 21.0787L0 13.8553V12.5289C0.0580245 12.3508 0.127654 12.1762 0.170592 11.9946C0.807701 9.15653 2.567 7.37059 5.31504 6.68899C14.1545 4.49812 22.9963 2.312 31.8647 0.236315C36.1817 -0.773028 39.5901 1.51402 40.645 5.89101V5.8922ZM22.3673 21.157C22.423 20.0836 21.8578 20.0669 21.2451 20.1216C21.1105 20.1334 20.9724 20.1453 20.8366 20.1263C20.1682 20.0361 19.9175 20.3044 19.9465 21.0027C20.0103 22.519 20.0138 24.0366 20.0277 25.5542C20.0312 25.8344 19.9755 26.1135 19.9419 26.4353C19.0123 26.2061 18.7663 25.559 18.7001 24.8572C18.6189 23.8965 18.5818 22.9335 18.5887 21.9681C18.5887 19.6953 18.8092 20.1797 16.7331 20.0919C16.0577 20.0622 15.8627 20.365 15.8813 20.9647C15.9196 22.1759 15.9184 23.3918 15.995 24.603C16.1563 27.092 16.9083 27.9909 19.2908 28.5098C19.8734 28.6357 20.0475 28.9076 20.0254 29.4633C19.9964 30.1996 20.0184 30.9382 20.0184 31.7266C20.4513 31.7516 20.7449 31.7813 21.0397 31.7824C22.9626 31.7979 22.6121 31.8086 22.6481 30.2079C22.6528 29.9324 22.6632 29.6569 22.6458 29.3814C22.6063 28.8019 22.8698 28.619 23.4233 28.6143C24.1324 28.6179 24.8391 28.5549 25.5377 28.4302C27.3133 28.0847 28.2951 26.82 28.4668 24.7491C28.6455 22.6117 27.7659 20.802 26.2213 20.1821C25.8881 20.0631 25.5428 19.9834 25.1919 19.9446C24.1254 19.7867 23.3026 20.3127 22.3684 21.157H22.3673ZM30.4768 20.8329C29.0459 22.0524 28.6919 23.6875 29.0842 25.4818C29.4335 27.0872 30.4292 28.2129 32.0342 28.4172C33.2434 28.5715 34.5106 28.3768 35.7408 28.2331C36.6692 28.1251 36.1423 27.4007 36.126 26.9293C36.1098 26.4175 35.8475 26.2821 35.3079 26.3451C34.4561 26.446 33.5741 26.4887 32.7316 26.3617C32.2895 26.2964 31.9077 25.8178 31.5003 25.5257L31.6814 25.1493H32.5506C33.7203 25.1457 34.8924 25.1588 36.0622 25.1255C36.2792 25.1172 36.6227 24.9617 36.6842 24.793C37.2297 23.2814 36.1736 20.8329 34.6998 20.2213C33.1946 19.5979 31.7289 19.7653 30.4768 20.8329V20.8329ZM6.23647 16.8834C5.45778 16.8572 5.28139 17.1624 5.28719 17.8844C5.31968 20.7806 5.28139 23.6756 5.30692 26.5719C5.32781 28.6915 4.91583 28.3863 7.27511 28.4219C7.80894 28.4314 8.00042 28.2046 7.99229 27.6857C7.97605 26.5814 8.0039 25.4794 7.98881 24.3762C7.98185 23.8834 8.17797 23.678 8.66538 23.6875C9.56592 23.7041 10.4641 23.7077 11.3635 23.6875C11.8625 23.6756 12.0482 23.9001 12.0378 24.3822C12.0238 25.0982 12.0343 25.8166 12.0343 26.5327V26.9127C12.0436 28.5632 12.1689 28.543 14.0535 28.4255C14.5467 28.3946 14.7324 28.2046 14.7243 27.7201C14.7092 26.8948 14.7243 26.066 14.7243 25.2407C14.7243 22.7304 14.7359 20.2213 14.7022 17.7122C14.6976 17.4438 14.44 16.9772 14.2555 16.9522C13.5638 16.862 12.8559 16.9166 12.0366 16.9166L12.0343 19.8069V20.289C12.0308 21.4575 11.9414 21.2592 10.579 21.2603C9.769 21.2603 8.62244 21.505 8.23832 21.0787C7.80081 20.5918 8.01898 19.4803 7.99693 18.6372C7.94007 16.6779 8.28706 16.9546 6.23647 16.8834V16.8834ZM41.7939 19.9743C41.1336 20.2189 40.5313 20.6108 39.9139 20.9326C39.9858 20.0028 39.2524 20.0515 38.519 20.1002C38.4377 20.1073 38.3542 20.1061 38.2729 20.0966C37.6556 20.0052 37.4641 20.2926 37.4792 20.8958C37.5268 22.8005 37.5186 24.704 37.565 26.6063C37.6138 28.5799 37.1473 28.3697 39.4334 28.435C40.0624 28.4528 40.2342 28.1951 40.2249 27.6109C40.2003 26.3972 40.2119 25.1831 40.2597 23.9701C40.3038 23.0142 40.7842 22.4525 41.6755 22.4882C42.6515 22.5274 42.7675 22.0488 42.6851 21.2841C42.6654 21.0923 42.6651 20.8989 42.684 20.707C42.7513 20.0004 42.3579 19.7653 41.7927 19.9743H41.7939ZM25.4809 22.8919C25.9045 23.7493 25.9393 24.6399 25.5737 25.5257C25.2163 26.389 23.7448 26.9412 22.915 26.5101C22.77 26.4353 22.6667 26.1717 22.6423 25.9829C22.6005 25.6302 22.6307 25.2704 22.6307 24.913L22.5843 24.9082C22.6493 24.3371 22.6771 23.7564 22.7897 23.1947C22.9324 22.4882 23.4396 22.1236 24.1173 22.0453C24.766 21.9693 25.2058 22.3338 25.4809 22.8919V22.8919ZM32.973 21.6926C33.7203 21.6902 34.2112 22.2792 34.2043 23.2327H31.6349C31.6326 22.335 32.2036 21.6938 32.9742 21.6926H32.973ZM17.2449 16.5627C16.5207 16.5794 15.9915 17.1755 16.0264 17.9331C16.0612 18.6574 16.5962 19.1585 17.3145 19.1407C17.6441 19.1395 17.9609 19.0042 18.193 18.7655C18.4251 18.5268 18.5527 18.2038 18.5504 17.8689C18.5504 17.5186 18.4112 17.185 18.1663 16.9392C18.0444 16.8175 17.9003 16.7217 17.7422 16.6571C17.5841 16.5925 17.4151 16.5604 17.2449 16.5627V16.5627Z" fill="black"/>
</svg>
