<svg width="77" height="34" viewBox="0 0 77 34" fill="none" xmlns="http://www.w3.org/2000/svg">
<path d="M77 0C76.9801 0.171857 76.9722 0.339762 76.9384 0.505693L75.3597 8.28864L73.4709 17.6124C72.7909 20.9764 72.1149 24.3444 71.423 27.7065C71.256 28.5361 71.1427 29.3776 70.8107 30.1678C70.4528 31.0429 69.8762 31.8073 69.1346 32.3802C67.6693 33.5002 65.9455 33.9407 64.166 33.9644C59.2591 34.0237 54.3541 33.9881 49.4472 33.9901H41.7329C27.8988 33.996 14.0607 33.996 0.222682 34H0C0.0139176 33.8815 0.0198816 33.7906 0.0357874 33.6997L0.322092 32.2716L2.21091 22.8886L4.02616 13.8908C4.61666 10.9672 5.21909 8.04764 5.81556 5.12805C6.06806 3.88159 6.62477 2.80897 7.57912 1.96154C9.08221 0.634093 10.9034 0.225191 12.8081 0.045433L44.9935 0.0355559L65.1641 0.0296312L71.9996 0.0237046C72.0811 0.0237046 72.1646 0.00790146 72.2481 0H77V0ZM27.5687 13.8967C26.9166 13.5115 26.2048 13.4325 25.4672 13.5076C24.7117 13.5806 24.0317 13.8394 23.4392 14.3254C23.3955 14.3649 23.3398 14.3945 23.2722 14.4399L23.4054 13.6636C22.9362 13.6636 22.5027 13.6616 22.0733 13.6735C22.0236 13.6735 21.95 13.7624 21.9421 13.8197C21.7552 14.9535 21.5842 16.0913 21.3854 17.2212C20.9977 19.4613 20.596 21.6954 20.1944 23.9316C20.101 24.4689 19.9916 24.9983 19.8842 25.5652C20.437 25.5652 20.9559 25.5652 21.4748 25.5573C21.5146 25.5573 21.5822 25.4783 21.5941 25.4269C21.6239 25.2847 21.6259 25.1385 21.6478 24.9963L22.0614 22.29L22.2562 21.0238L22.3854 21.2253L22.5127 21.4149C22.684 21.6632 22.9264 21.8545 23.2086 21.9641C23.6122 22.1182 24.0237 22.1439 24.4492 22.1182C25.6024 22.0431 26.5766 21.6164 27.3262 20.6939C27.8212 20.0875 28.1155 19.3843 28.3441 18.6475C28.6961 17.5116 28.9048 16.362 28.5569 15.1827C28.4083 14.6427 28.0539 14.1814 27.5687 13.8967V13.8967ZM35.3705 13.6972C34.454 13.4198 33.478 13.4007 32.5512 13.6419C31.4577 13.9007 30.6127 14.4913 30.056 15.4928C29.5987 16.3225 29.3542 17.2114 29.217 18.1398C29.1176 18.8075 29.0858 19.4751 29.2587 20.1349C29.5013 21.0633 30.0918 21.6599 30.9964 21.8989C32.4876 22.296 33.9549 22.0174 35.4163 21.6935C35.466 21.6816 35.5137 21.6006 35.5276 21.5433C35.5813 21.2865 35.627 21.0258 35.6747 20.767L35.7463 20.3403L35.7026 20.3463C35.6787 20.3463 35.6668 20.3463 35.6549 20.3502C34.7532 20.7698 33.7627 20.9663 32.768 20.9231C32.4508 20.912 32.1381 20.8465 31.8434 20.7295C31.1992 20.4687 30.905 19.9314 30.8593 19.2894C30.8215 18.7462 30.9129 18.1911 30.9487 17.644C30.9527 17.5254 31.0084 17.4721 31.1296 17.4682C31.5671 17.4583 32.0005 17.4247 32.4319 17.4247C33.7203 17.4287 35.0027 17.4445 36.2871 17.4583C36.4243 17.4583 36.4939 17.4306 36.5237 17.2766C36.643 16.6681 36.7583 16.0617 36.7285 15.4395C36.6867 14.5822 36.2255 13.9658 35.3705 13.6972V13.6972ZM47.5584 13.5174C46.7899 13.4435 46.0147 13.4781 45.256 13.6201C44.7793 13.7071 44.3263 13.8927 43.9266 14.1649C43.5268 14.4372 43.1892 14.79 42.9357 15.2004C42.2738 16.2284 41.9016 17.414 41.8581 18.6336C41.8263 19.3092 41.7985 19.9887 42.1086 20.6268C42.4168 21.2549 42.8542 21.729 43.5441 21.9127C44.8325 22.2624 46.0891 22.0569 47.3337 21.6935C47.3993 21.6737 47.4689 21.5848 47.4828 21.5137C47.5564 21.1858 47.616 20.8618 47.6757 20.528C47.6816 20.4885 47.6697 20.447 47.6637 20.3917C46.8008 20.7947 45.9201 21.0041 44.9876 20.9092C44.713 20.8763 44.4501 20.7795 44.2201 20.6268C43.7111 20.285 43.5759 19.728 43.5441 19.1512C43.4923 18.3349 43.6065 17.5166 43.8801 16.7452C44.0372 16.279 44.2539 15.8365 44.5243 15.4276C45.0075 14.7402 45.765 14.596 46.5444 14.596C47.2422 14.596 47.9222 14.7402 48.6221 14.9851C48.6897 14.5604 48.7573 14.1515 48.8109 13.7426C48.8129 13.7071 48.7175 13.63 48.6638 13.6201C48.296 13.5806 47.9282 13.551 47.5603 13.5174H47.5584ZM70.4031 10.1139C69.8662 10.1139 69.3473 10.1099 68.8284 10.1178C68.7886 10.1178 68.721 10.2047 68.7171 10.2561L68.4268 12.2058C68.3472 12.7233 68.2598 13.2409 68.1703 13.796C67.572 13.5653 66.9328 13.4577 66.2914 13.4799C65.5407 13.4745 64.8003 13.6537 64.1362 14.0014C63.4244 14.3905 62.8438 14.9891 62.47 15.716C61.9656 16.6415 61.6647 17.6629 61.5873 18.7126C61.5416 19.4277 61.5634 20.131 61.8497 20.8006C62.0092 21.1831 62.2945 21.5006 62.6589 21.7014C63.2594 22.0372 63.9135 22.1083 64.5835 22.0826C65.5737 22.0471 66.4485 21.7666 67.0032 20.846C67.039 20.7927 67.0788 20.7433 67.1483 20.6485L66.9952 21.8811H68.5063L68.6554 20.3957C69.0531 16.9388 69.7967 13.5471 70.4011 10.1139H70.4031ZM53.6165 13.4819L53.2904 13.4838C52.4156 13.5016 51.5467 13.5984 50.6699 13.6695C50.6202 13.6735 50.5367 13.7169 50.5288 13.7564C50.4234 14.1634 50.3359 14.5703 50.2325 15.0167C50.5964 14.9357 50.9204 14.8528 51.2505 14.7915C52.0995 14.6197 52.9524 14.4775 53.8113 14.6967C54.2408 14.8054 54.6424 15.0582 54.5788 15.637L54.4893 16.358C54.4774 16.5101 54.4157 16.5654 54.2567 16.5654C53.5747 16.5595 52.8928 16.5931 52.2108 16.5654C51.6385 16.5611 51.0722 16.6825 50.5526 16.921C50.2544 17.0339 49.9754 17.1918 49.7255 17.3891C48.7911 18.1872 48.4968 19.2401 48.6598 20.4391C48.7732 21.2846 49.2623 21.808 50.0854 21.9641C50.4632 22.0392 50.8568 22.0648 51.2386 22.0708C52.2685 22.0866 53.0995 21.6717 53.7417 20.8579C53.7954 20.7868 53.8571 20.7157 53.9326 20.6228L53.8292 21.8811H55.2866L55.2945 21.5038C55.2985 21.253 55.3045 21.01 55.3343 20.767C55.4934 19.6766 55.6803 18.5882 55.8453 17.4958C55.9686 16.6602 56.2131 15.8424 56.1753 14.9812C56.1748 14.7589 56.1134 14.541 55.9978 14.3507C55.8823 14.1603 55.7168 14.0048 55.5192 13.9007C54.8253 13.5056 54.0499 13.472 53.2904 13.4858L53.6165 13.4819ZM20.4608 13.6853H18.8305L17.395 21.895L18.1227 21.893L18.8563 21.8969C19.0054 21.8989 19.0631 21.8535 19.079 21.7033C19.1267 21.2786 19.1784 20.8539 19.254 20.4332C19.6079 18.4045 19.9697 16.3778 20.3316 14.3451L20.4608 13.6853V13.6853ZM61.6569 13.4937L61.4163 13.4977C60.9192 13.5214 60.446 13.7268 60.0901 14.0784C59.8297 14.3293 59.607 14.6177 59.3485 14.914L59.5573 13.6656L58.4399 13.6676C58.1417 13.6735 58.1039 13.711 58.0482 14.0113L58.0224 14.1574C57.6327 16.4331 57.2331 18.7008 56.8394 20.9725C56.7857 21.2707 56.7261 21.571 56.6644 21.891C57.2211 21.891 57.746 21.895 58.2689 21.8851C58.3087 21.8851 58.3723 21.8159 58.3763 21.7685C58.4499 21.1759 58.4896 20.5774 58.591 19.9907C58.7819 18.8924 58.9688 17.7882 59.2312 16.7076C59.3186 16.293 59.5049 15.9053 59.7744 15.577C60.0439 15.2487 60.3888 14.9895 60.7801 14.8212C60.8376 14.7928 60.9007 14.7773 60.965 14.7757C61.3626 14.7955 61.7702 14.7086 62.1579 14.8785C62.2494 14.918 62.2971 14.8785 62.315 14.7757C62.3627 14.4617 62.4144 14.1515 62.474 13.8414C62.4919 13.7387 62.4601 13.6952 62.3647 13.6518C62.0651 13.5271 61.7402 13.4743 61.4163 13.4977L61.6569 13.4937ZM8.8814 10.347C8.76211 10.347 8.74819 10.4122 8.73229 10.507C8.57919 11.4591 8.43604 12.4132 8.26903 13.3653C7.8515 15.7595 7.42403 18.1556 7.00054 20.5438C6.92499 20.9823 6.83552 21.4169 6.74207 21.891H7.96483L8.55732 21.8851C8.60305 21.8851 8.67662 21.7962 8.68656 21.7389C8.74024 21.488 8.76808 21.2332 8.81182 20.9823C9.07227 19.4396 9.33472 17.9008 9.5912 16.356C9.61705 16.198 9.67669 16.1466 9.84172 16.1466C11.4204 16.1545 12.997 16.1545 14.5737 16.1466C14.7546 16.1466 14.7984 16.198 14.7626 16.3718L13.9573 20.7137L13.8579 21.2925L13.7585 21.891C14.3888 21.891 14.9833 21.8969 15.5817 21.8851C15.6235 21.8851 15.6931 21.7942 15.701 21.733C15.9177 20.4766 16.1106 19.2183 16.3273 17.96C16.7051 15.7812 17.0987 13.6024 17.4864 11.4255C17.5481 11.07 17.6216 10.7203 17.6912 10.3489C17.0689 10.3489 16.4645 10.347 15.8621 10.3549C15.8223 10.3549 15.7567 10.428 15.7467 10.4734C15.5479 11.6586 15.3491 12.8438 15.1562 14.031L14.9972 15.0187H9.81786L10.6569 10.3707L10.6211 10.3568L10.5933 10.3489L8.8814 10.347ZM41.6812 13.5016C40.8799 13.553 40.3013 14.0192 39.852 14.6671C39.7864 14.7619 39.7168 14.8508 39.6472 14.9436C39.6325 14.9395 39.6179 14.9349 39.6035 14.9298L39.8301 13.6695L39.8321 13.6676H38.9036L38.4563 13.6735C38.4165 13.6735 38.3489 13.7525 38.3409 13.8058L38.2137 14.6631L37.1321 20.852L37.0387 21.3636L36.9392 21.8831H38.6133L38.6372 21.6006L38.667 21.3241C38.8281 20.2752 38.9752 19.2223 39.1661 18.1734C39.2766 17.5612 39.4294 16.9573 39.6234 16.3659C39.7904 15.8622 40.1085 15.4256 40.5359 15.1155C40.7944 14.9239 41.0728 14.7441 41.4207 14.7718L42.548 14.8488L42.6117 14.513C42.6534 14.2819 42.6971 14.0429 42.7369 13.8019C42.7429 13.7624 42.7091 13.6853 42.6793 13.6774L42.1782 13.555C42.0161 13.5131 41.8486 13.4951 41.6812 13.5016V13.5016ZM24.5248 14.6671C25.1371 14.5328 25.7416 14.5545 26.2883 14.8864C26.4673 15.0049 26.6144 15.1649 26.7178 15.3545C26.9862 15.8108 27.024 16.3224 26.9723 16.6523C26.9524 17.9719 26.6621 19.0149 26.0776 19.9808C25.501 20.9488 24.1033 21.2826 23.2264 20.7591C23.0466 20.6457 22.8988 20.4887 22.797 20.3028C22.4848 19.7438 22.5783 19.1472 22.6896 18.5546C22.8686 17.5669 23.0435 16.5773 23.2304 15.5876C23.2552 15.4768 23.3135 15.3762 23.3974 15.2992C23.711 14.994 24.0997 14.776 24.5248 14.6671V14.6671ZM66.7586 14.6078L67.031 14.6355C67.2995 14.6789 67.5639 14.7599 67.8263 14.8449C67.9436 14.8804 67.9854 14.9298 67.9615 15.0523C67.6991 16.3797 67.4545 17.7092 67.1782 19.0307C67.031 19.73 66.6732 20.3147 66.0349 20.6722C65.3748 21.0396 64.3708 21.1423 63.7604 20.5497C63.5839 20.3592 63.4569 20.1286 63.3906 19.8781C63.3111 19.5937 63.3071 19.2855 63.2713 18.9852C63.319 17.804 63.5596 16.6899 64.2157 15.6943C64.5477 15.1511 65.0866 14.7678 65.7049 14.6355C65.9534 14.5841 66.2218 14.6335 66.4803 14.6078H66.7586V14.6078ZM53.1393 17.48L53.1453 17.5353H54.0599L54.1374 17.5393C54.2289 17.5531 54.2706 17.6045 54.2308 17.7408C54.0579 18.3452 53.9346 18.9655 53.7199 19.5581C53.6081 19.8579 53.4282 20.1281 53.194 20.3474C52.9598 20.5667 52.6777 20.7292 52.3699 20.8223C51.8171 21.012 51.2763 21.0416 50.7534 20.7512C50.611 20.6705 50.4908 20.5562 50.4034 20.4184C50.316 20.2806 50.2642 20.1235 50.2524 19.9611C50.1948 19.5099 50.2759 19.052 50.485 18.6475C50.5954 18.4038 50.7608 18.1887 50.9684 18.0188C51.176 17.8489 51.4201 17.7287 51.6819 17.6677C52.1591 17.559 52.6522 17.5393 53.1373 17.48H53.1393ZM33.5076 14.5743L33.8436 14.5822L34.1796 14.6118C34.8138 14.6829 35.1936 15.1511 35.1737 15.797C35.1638 16.0261 35.124 16.2553 35.1001 16.4983H31.2231L31.2827 16.2474C31.5412 15.3506 32.1377 14.6671 33.1716 14.5881L33.5076 14.5743V14.5743ZM20.2541 10.2087L20.0831 10.2284C19.8631 10.268 19.6555 10.3579 19.4767 10.4912C19.089 10.8171 19.0989 11.3011 19.1108 11.7613C19.1128 11.8818 19.2082 12.032 19.3037 12.1169C19.594 12.3618 20.2759 12.2947 20.5523 12.032C20.6962 11.9022 20.8083 11.7415 20.88 11.5621C20.9516 11.3827 20.981 11.1893 20.9658 10.9969C20.9678 10.5583 20.8982 10.3825 20.5921 10.262C20.4292 10.2027 20.2527 10.1903 20.0831 10.2265L20.2541 10.2087Z" fill="black"/>
</svg>
