<svg width="30" height="30" viewBox="0 0 30 30" fill="none" xmlns="http://www.w3.org/2000/svg">
<path d="M20.625 0H9.375C4.19813 0 0 4.12719 0 9.21659V20.2765C0 25.3659 4.19813 29.4931 9.375 29.4931H20.625C25.8019 29.4931 30 25.3659 30 20.2765V9.21659C30 4.12719 25.8019 0 20.625 0ZM27.1875 20.2765C27.1875 23.8341 24.2437 26.7281 20.625 26.7281H9.375C5.75625 26.7281 2.8125 23.8341 2.8125 20.2765V9.21659C2.8125 5.65899 5.75625 2.76498 9.375 2.76498H20.625C24.2437 2.76498 27.1875 5.65899 27.1875 9.21659V20.2765Z" fill="white"/>
<path d="M15 7.37354C10.8581 7.37354 7.5 10.6749 7.5 14.7467C7.5 18.8185 10.8581 22.1199 15 22.1199C19.1419 22.1199 22.5 18.8185 22.5 14.7467C22.5 10.6749 19.1419 7.37354 15 7.37354ZM15 19.3549C12.4162 19.3549 10.3125 17.2868 10.3125 14.7467C10.3125 12.2048 12.4162 10.1385 15 10.1385C17.5837 10.1385 19.6875 12.2048 19.6875 14.7467C19.6875 17.2868 17.5837 19.3549 15 19.3549Z" fill="white"/>
<path d="M23.0625 7.80271C23.6144 7.80271 24.0619 7.36287 24.0619 6.8203C24.0619 6.27773 23.6144 5.83789 23.0625 5.83789C22.5105 5.83789 22.0631 6.27773 22.0631 6.8203C22.0631 7.36287 22.5105 7.80271 23.0625 7.80271Z" fill="white"/>
</svg>
