<svg width="56" height="38" viewBox="0 0 56 38" fill="none" xmlns="http://www.w3.org/2000/svg">
<path d="M14.9231 16.4043C13.8741 16.4043 13.07 16.7556 13.07 16.7556L12.8479 18.13C12.8479 18.13 13.5112 17.849 14.5156 17.849C15.0857 17.849 15.5021 17.9151 15.5021 18.3977C15.5021 18.6912 15.4515 18.7997 15.4515 18.7997C15.4515 18.7997 15.0024 18.7614 14.7942 18.7614C13.4705 18.7614 12.0804 19.3484 12.0804 21.1248C12.0804 22.5239 12.9916 22.8433 13.5578 22.8433C14.6375 22.8433 15.1035 22.1137 15.1273 22.1116L15.0768 22.7213H16.4242L17.0251 18.3295C17.0241 16.4642 15.4644 16.4043 14.9231 16.4043ZM14.1676 21.5071C13.6926 21.5071 13.5687 21.1299 13.5687 20.9046C13.5687 20.4686 13.7957 19.9436 14.9171 19.9436C15.1789 19.9446 15.2066 19.9725 15.2503 19.9808C15.28 20.2495 15.0897 21.5071 14.1676 21.5071Z" fill="black"/>
<path d="M19.7894 17.8763C20.0045 17.8763 20.8344 17.9476 20.8344 17.9476L21.0277 16.5401C21.0277 16.5401 20.4904 16.415 19.6158 16.415C18.4836 16.415 17.3354 16.8863 17.3354 18.4974C17.3354 20.3245 19.251 20.1385 19.251 20.9094C19.251 21.422 18.7156 21.4644 18.3031 21.4644C17.5882 21.4644 16.9457 21.2101 16.9438 21.2205L16.7395 22.6166C16.7762 22.627 17.1728 22.8109 18.4568 22.8109C18.8008 22.8109 20.7709 22.9039 20.7709 20.7844C20.7709 18.8023 18.9476 19.1939 18.9476 18.3972C18.9476 18.0003 19.244 17.8763 19.7894 17.8763Z" fill="black"/>
<path d="M23.0088 18.0566H23.8189L24.0142 16.5561H23.2508L23.4064 15.626H21.8765C21.8428 15.6601 20.9733 20.8717 20.9733 21.5041C20.9733 22.4456 21.4799 22.8631 22.1928 22.8559C22.751 22.8517 23.1863 22.6905 23.34 22.6461L23.5313 21.2902C23.4262 21.2902 23.2726 21.3378 23.1367 21.3378C22.6043 21.3378 22.5458 21.0412 22.5795 20.8231L23.0088 18.0566Z" fill="black"/>
<path d="M29.4208 9.35059H26.6902C26.3234 9.86718 25.9783 10.4168 25.666 10.9541H30.5373C30.1992 10.3941 29.8254 9.85892 29.4208 9.35059Z" fill="black"/>
<path d="M50.7262 27.3919C50.6965 27.3454 50.6717 27.3103 50.6519 27.2886C50.641 27.2783 50.6271 27.2669 50.6092 27.2618C50.6519 27.2587 50.6876 27.2421 50.7133 27.2143C50.7381 27.1864 50.752 27.1533 50.752 27.1151C50.752 27.0883 50.7441 27.0625 50.7292 27.0387C50.7143 27.015 50.6925 26.9974 50.6657 26.9881C50.641 26.9778 50.5983 26.9727 50.5398 26.9727H50.3673V27.4941H50.4486V27.2731H50.4952C50.523 27.2731 50.5458 27.2793 50.5587 27.2917C50.5795 27.3093 50.6092 27.3495 50.6439 27.4125L50.6876 27.4951H50.7877L50.7262 27.3919ZM50.5458 27.2039H50.4466V27.047H50.5398C50.5785 27.047 50.6043 27.0501 50.6192 27.0563C50.635 27.0625 50.6449 27.0718 50.6539 27.0831C50.6618 27.0955 50.6657 27.109 50.6657 27.1234C50.6657 27.1472 50.6578 27.1678 50.641 27.1823C50.6241 27.1957 50.5914 27.2039 50.5458 27.2039Z" fill="black"/>
<path d="M31.3651 12.5283H24.8143C24.3959 13.3541 24.1182 13.9783 24.0399 14.1333H31.9858C31.8063 13.5814 31.6001 13.0471 31.3651 12.5283Z" fill="black"/>
<path d="M10.2055 15.1338L8.69742 19.7946L8.61909 15.1338H6.38623L5.16272 22.7285H6.63907L7.57008 17.0033L7.70691 22.7285H8.76088L10.727 17.0033L9.85549 22.7285H11.4221L12.6287 15.1338H10.2055Z" fill="black"/>
<path d="M39.7285 16.4043C38.6775 16.4043 37.8744 16.7556 37.8744 16.7556L37.6513 18.13C37.6513 18.13 38.3156 17.849 39.319 17.849C39.8891 17.849 40.3065 17.9151 40.3065 18.3977C40.3065 18.6912 40.254 18.7997 40.254 18.7997C40.254 18.7997 39.8058 18.7614 39.5956 18.7614C38.2729 18.7614 36.8839 19.3484 36.8839 21.1248C36.8839 22.5239 37.796 22.8433 38.3612 22.8433C39.4399 22.8433 39.9059 22.1137 39.9307 22.1116L39.8802 22.7213H41.2266L41.8275 18.3295C41.8305 16.4642 40.2698 16.4043 39.7285 16.4043ZM38.9749 21.5071C38.499 21.5071 38.3761 21.1299 38.3761 20.9046C38.3761 20.4686 38.6031 19.9436 39.7245 19.9436C39.9853 19.9446 40.013 19.9725 40.0576 19.9808C40.0864 20.2495 39.895 21.5071 38.9749 21.5071Z" fill="black"/>
<path d="M50.7748 22.0286C50.7341 21.95 50.6746 21.8901 50.6003 21.8487C50.5269 21.8063 50.4515 21.7856 50.3722 21.7856C50.2959 21.7867 50.2195 21.8074 50.1442 21.8487C50.0698 21.8901 50.0123 21.95 49.9707 22.0286C49.929 22.1061 49.9082 22.1868 49.9082 22.2705C49.9082 22.3542 49.929 22.4339 49.9707 22.5104C50.0113 22.5869 50.0688 22.6479 50.1422 22.6913C50.2166 22.7337 50.2929 22.7554 50.3722 22.7554C50.4535 22.7554 50.5309 22.7337 50.6032 22.6913C50.6766 22.6479 50.7341 22.5869 50.7748 22.5104C50.8174 22.4339 50.8363 22.3542 50.8363 22.2705C50.8363 22.1847 50.8164 22.1041 50.7748 22.0286ZM50.7103 22.47C50.6766 22.5341 50.629 22.5827 50.5666 22.621C50.5051 22.6561 50.4416 22.6747 50.3752 22.6747C50.3078 22.6747 50.2433 22.6561 50.1828 22.621C50.1204 22.5848 50.0738 22.5352 50.0381 22.47C50.0024 22.4049 49.9865 22.3387 49.9865 22.2695C49.9865 22.2002 50.0034 22.133 50.0401 22.0679C50.0748 22.0038 50.1214 21.9542 50.1848 21.918C50.2483 21.8818 50.3108 21.8663 50.3752 21.8663C50.4396 21.8663 50.5031 21.8828 50.5636 21.918C50.627 21.9542 50.6736 22.0027 50.7083 22.0679C50.7431 22.133 50.7619 22.2002 50.7619 22.2695C50.7619 22.3387 50.745 22.4059 50.7103 22.47Z" fill="black"/>
<path d="M50.5299 22.4344C50.5011 22.3859 50.4754 22.3518 50.4565 22.3311C50.4446 22.3198 50.4317 22.3105 50.4139 22.3043C50.4565 22.3012 50.4912 22.2847 50.517 22.2568C50.5418 22.2299 50.5567 22.1948 50.5567 22.1576C50.5567 22.1318 50.5487 22.105 50.5329 22.0812C50.517 22.0585 50.4962 22.041 50.4714 22.0306C50.4466 22.0203 50.403 22.0151 50.3445 22.0151H50.17V22.5356H50.2513V22.3146H50.2979C50.3266 22.3146 50.3494 22.3208 50.3633 22.3322C50.3841 22.3507 50.4119 22.39 50.4486 22.455L50.4912 22.5366H50.5914L50.5299 22.4344ZM50.3514 22.2433H50.2533V22.0854H50.3445C50.3841 22.0854 50.4099 22.0885 50.4258 22.0936C50.4387 22.1008 50.4506 22.1081 50.4585 22.1215C50.4674 22.1349 50.4714 22.1463 50.4714 22.1638C50.4714 22.1866 50.4625 22.2062 50.4476 22.2206C50.4288 22.2382 50.398 22.2433 50.3514 22.2433Z" fill="black"/>
<path d="M44.9279 16.479C44.2428 16.479 43.7341 17.4535 43.7341 17.4535L43.871 16.5575H42.4452L41.4904 22.7393H43.0609C43.5081 20.0979 43.5894 17.9557 44.6513 18.3474C44.8387 17.3264 45.0191 16.9306 45.2224 16.4997C45.2224 16.5007 45.1272 16.479 44.9279 16.479Z" fill="black"/>
<path d="M48.8741 15.1423L48.5439 17.2762C48.5439 17.2762 47.9688 16.4464 47.0666 16.4464C45.6636 16.4474 44.4956 18.2093 44.4956 20.2327C44.4956 21.5399 45.1193 22.8203 46.3923 22.8203C47.3095 22.8203 47.8171 22.1538 47.8171 22.1538L47.7507 22.7232H49.2389L50.4089 15.1392L48.8741 15.1423ZM46.9337 21.2702C46.3824 21.2702 46.1246 20.7887 46.1246 20.0322C46.1246 18.7953 46.6571 17.9799 47.3303 17.9799C47.8796 17.981 48.1622 18.3747 48.1622 19.3027C48.1622 20.1449 47.7626 21.2702 46.9337 21.2702Z" fill="black"/>
<path d="M54.5584 0H1.44164C0.644476 0 0 0.672763 0 1.50261V36.3241C0 37.1539 0.644476 37.8267 1.44164 37.8267H54.5584C55.3555 37.8267 56 37.1539 56 36.3241V1.50261C56 0.672763 55.3555 0 54.5584 0ZM50.9721 27.4676C50.9305 27.5461 50.8739 27.606 50.8006 27.6484C50.7272 27.6908 50.6499 27.7125 50.5705 27.7125C50.4892 27.7125 50.4119 27.6908 50.3385 27.6484C50.2661 27.606 50.2086 27.5461 50.166 27.4676C50.1254 27.3921 50.1045 27.3115 50.1045 27.2278C50.1045 27.1441 50.1254 27.0645 50.167 26.986C50.2076 26.9074 50.2671 26.8485 50.3405 26.8062C50.4149 26.7659 50.4902 26.7442 50.5695 26.7442C50.6479 26.7442 50.7232 26.7659 50.7966 26.8062C50.871 26.8485 50.9295 26.9074 50.9701 26.986C51.0118 27.0645 51.0316 27.1451 51.0316 27.2278C51.0316 27.3105 51.0137 27.3942 50.9721 27.4676ZM52.0112 18.9138C52.0132 27.1865 45.5823 33.8955 37.6443 33.8976C33.9322 33.8986 30.5472 32.4322 27.997 30.0232C25.4469 32.428 22.0688 33.8934 18.3626 33.8934C10.4296 33.8934 3.99079 27.1834 3.99079 18.9138C3.99079 10.6774 10.379 3.98697 18.2704 3.93324C18.3011 3.93324 18.3319 3.93324 18.3626 3.93324C22.0688 3.93324 25.4479 5.39864 27.998 7.80343C30.5472 5.39761 33.9282 3.93117 37.6374 3.93014C45.5754 3.92704 52.0112 10.633 52.0132 18.9066C52.0112 18.9087 52.0112 18.9097 52.0112 18.9138Z" fill="black"/>
<path d="M26.5256 28.3853C26.9807 28.9656 27.4626 29.5191 27.995 30.021C28.0069 30.0096 28.0198 29.9993 28.0317 29.989C28.0317 29.989 28.0307 29.989 28.0307 29.9879H28.0337C28.5572 29.4912 29.046 28.9563 29.4932 28.3853H26.5256Z" fill="black"/>
<path d="M28.4828 20.1636C28.4828 20.1636 28.6841 19.1302 28.6841 18.7095C28.6841 17.6585 28.1824 16.377 26.5028 16.377C24.964 16.378 23.8248 18.106 23.8248 20.0593C23.8248 22.3133 25.2515 22.8486 26.4681 22.8486C27.5905 22.8486 28.0843 22.5861 28.0843 22.5861L28.354 21.0483C28.354 21.0483 27.5003 21.441 26.7289 21.441C25.086 21.441 25.3735 20.1636 25.3735 20.1636H28.4828ZM26.5078 17.8083C27.3714 17.8083 27.2117 18.8201 27.2117 18.9007H25.5133C25.5133 18.7963 25.6739 17.8083 26.5078 17.8083Z" fill="black"/>
<path d="M35.6594 16.5889C36.4377 16.5889 37.0633 17.0446 37.0633 17.0446L37.3132 15.355C37.3132 15.355 36.3871 14.9644 35.59 14.9644C33.8241 14.9644 32.1058 16.562 32.1058 19.562C32.1058 21.5513 33.0329 22.8647 34.8592 22.8647C35.3748 22.8647 36.1978 22.6467 36.1978 22.6467L36.4714 20.9064C36.4714 20.9064 35.7218 21.2981 35.2063 21.2981C34.1196 21.2971 33.6843 20.4331 33.6843 19.5072C33.6843 17.6233 34.6183 16.5889 35.6594 16.5889Z" fill="black"/>
<path d="M24.6071 25.2383C24.8559 25.7953 25.1454 26.3255 25.4558 26.8423H30.5551C30.8644 26.3276 31.143 25.7922 31.3919 25.2383H24.6071Z" fill="black"/>
<path d="M32.0781 16.4811C31.3929 16.4811 30.8853 17.4557 30.8853 17.4557L31.0231 16.5597H29.5983L28.6435 22.7422H30.214C30.6592 20.1015 30.7425 17.958 31.8044 18.3497C31.9908 17.3276 32.1703 16.9317 32.3735 16.4997C32.3735 16.4997 32.2783 16.479 32.0781 16.4811Z" fill="black"/>
</svg>
