<svg width="50" height="38" viewBox="0 0 50 38" fill="none" xmlns="http://www.w3.org/2000/svg">
<path d="M47.5973 13.1667H43.4583V12.1319C43.4583 8.1385 40.2087 4.88882 36.2152 4.88882H27.7469C27.8628 4.56366 27.9375 4.21871 27.9375 3.85417C27.9375 2.14241 26.5451 0.75 24.8333 0.75C23.1216 0.75 21.7292 2.14241 21.7292 3.85417C21.7292 4.21871 21.8039 4.56366 21.9198 4.88892H13.4514C9.45801 4.88892 6.20833 8.1386 6.20833 12.1319V13.1667H2.06941C0.927661 13.1667 0 14.0953 0 15.2361V16.1253C0 17.8593 0.860921 19.4679 2.30387 20.4299L6.20833 23.0329V30.7569C6.20833 34.7503 9.45801 38 13.4514 38H36.2153C40.2087 38 43.4583 34.7503 43.4583 30.7569V23.0329L47.3628 20.4299C48.8057 19.4679 49.6667 17.8593 49.6667 16.1253V15.2361C49.6667 14.0953 48.7391 13.1667 47.5973 13.1667ZM6.20833 20.5458L3.45174 18.7081C2.58674 18.1311 2.06941 17.1651 2.06941 16.1253V15.2361H6.20833V20.5458ZM24.8333 2.81941C25.4032 2.81941 25.8681 3.28319 25.8681 3.85417C25.8681 4.42514 25.4032 4.88892 24.8333 4.88892C24.2634 4.88892 23.7986 4.42504 23.7986 3.85417C23.7986 3.28329 24.2634 2.81941 24.8333 2.81941ZM13.4514 6.95833H36.2153C38.7145 6.95833 40.8036 8.73867 41.2844 11.0973H8.38232C8.86308 8.73867 10.9523 6.95833 13.4514 6.95833ZM41.3889 30.7569C41.3889 33.6094 39.0689 35.9305 36.2153 35.9305H13.4514C10.5978 35.9305 8.27784 33.6094 8.27784 30.7569V13.1667H41.3889V30.7569ZM47.5973 16.1253C47.5973 17.1651 47.0799 18.1311 46.2149 18.7081L43.4583 20.5458V15.2361H47.5973V16.1253Z" fill="#F1BA24"/>
</svg>
