<svg width="81" height="22" viewBox="0 0 81 22" fill="none" xmlns="http://www.w3.org/2000/svg">
<path d="M14.5174 3.52785C14.2523 3.00255 13.8329 2.56929 13.3123 2.24396C12.7692 1.91544 12.1281 1.68533 11.3953 1.54884C10.6497 1.41553 9.78847 1.35523 8.79061 1.3457L4.18376 1.34888C3.70491 1.35523 3.23571 1.72341 3.12323 2.18047L0.0236073 15.5146C-0.0888726 15.9653 0.211609 16.343 0.690453 16.343H2.89667C3.37551 16.343 3.84953 15.9764 3.95558 15.5146L4.71241 12.2771C4.81364 11.8264 5.28606 11.4502 5.76972 11.4502H6.40122C9.09913 11.4471 11.188 10.9027 12.6888 9.81244C14.1977 8.72058 14.9417 7.27798 14.9417 5.49099C14.9401 4.70859 14.8099 4.05157 14.5174 3.52785ZM9.75955 7.88422C9.0927 8.36667 8.16555 8.6079 6.97004 8.6079H6.43014C5.94969 8.6079 5.65564 8.23336 5.76008 7.7763L6.42371 4.94506C6.51691 4.49117 7.00058 4.11505 7.4746 4.11822L8.19768 4.11346C9.04128 4.11346 9.68563 4.25788 10.1163 4.5372C10.5421 4.81334 10.7558 5.25294 10.7526 5.83538C10.7654 6.72093 10.4232 7.40177 9.75955 7.88422Z" fill="black"/>
<path d="M77.4099 2.39004L77.2717 2.43131L77.0869 2.4567L76.8603 2.42179L76.7446 2.3107L76.6916 2.13612L76.6884 1.87427V0.904599H77.4259V0.604651H76.6884V0H76.3236V0.604651H76.0762V0.904599H76.3236V2.03297L76.494 2.5916L76.9953 2.76934L77.2058 2.75189L77.4291 2.70904V2.39004H77.4099Z" fill="black"/>
<path d="M80.8308 0.758678L80.3038 0.544434L79.9149 0.622197L79.5196 0.88564L79.2898 0.633306L78.917 0.54602L78.5587 0.623783L78.2197 0.839617V0.604737H77.8613V2.72341H78.2181V1.14115L78.5185 0.957056L78.8174 0.884054L79.0616 0.926904L79.1822 1.0491L79.2352 1.25224L79.2529 1.5141V2.72499H79.6112V1.36968L79.6048 1.257L79.5983 1.15385L79.9036 0.961817L80.2057 0.887229L80.4419 0.930076L80.5705 1.05228L80.6155 1.257L80.6396 1.51569V2.72658H80.9995V1.35064L80.8308 0.758678Z" fill="black"/>
<path d="M25.1564 5.43437C24.3241 4.97096 23.0097 4.73926 21.2132 4.73926C20.3246 4.73926 19.4392 4.8075 18.5442 4.94398C17.8838 5.04396 17.8195 5.06301 17.413 5.15029C16.5742 5.33121 16.4425 6.15805 16.4425 6.15805L16.1725 7.25468C16.0198 7.95455 16.428 7.92758 16.5983 7.86886C16.9647 7.76094 17.1688 7.64985 17.9175 7.4848C18.6326 7.32451 19.3862 7.20389 19.984 7.21183C20.8661 7.21183 21.541 7.30388 21.9909 7.49115C22.4344 7.68159 22.6562 8.00851 22.6562 8.48145L22.6176 8.78933L22.2994 8.98294C21.0477 9.06071 20.143 9.17497 19.0456 9.33209C17.9722 9.47968 17.0306 9.73836 16.248 10.0923C15.4076 10.4573 14.7842 10.9477 14.3487 11.5714C13.9277 12.1982 13.7172 12.9584 13.7172 13.8503C13.7172 14.6899 14.0225 15.3834 14.6155 15.9198C15.2116 16.4467 15.999 16.7038 16.9406 16.7038C17.5367 16.7006 17.9979 16.6546 18.3257 16.5768L19.3942 16.2134L20.2989 15.7182L21.1313 15.1755L21.1425 15.1914L21.0589 15.5405L21.0541 15.5548V15.558C20.9641 15.9833 21.2245 16.3324 21.6438 16.3737L21.6519 16.3832H21.6904H23.3825H23.7006L23.7295 16.3705C24.1698 16.3197 24.5828 15.9706 24.6792 15.5548L26.2877 8.67824L26.3712 8.11802L26.4098 7.59272C26.4162 6.61829 25.9904 5.89619 25.1564 5.43437ZM21.5989 13.1663L21.255 13.6139L20.3873 14.0566C19.9791 14.2201 19.5919 14.3026 19.2336 14.3026C18.6904 14.3026 18.2646 14.2249 17.977 14.0662L17.5512 13.2488C17.5512 12.8061 17.654 12.4553 17.8742 12.1855L18.8094 11.5571C19.2095 11.4238 19.6979 11.3111 20.2636 11.2333C20.7681 11.1714 21.7644 11.0588 21.8945 11.0556L22.0472 11.3206C22.0166 11.4714 21.7338 12.6394 21.5989 13.1663Z" fill="black"/>
<path d="M65.2282 5.44377C64.391 4.98036 63.0782 4.74707 61.2866 4.74707C60.398 4.74707 59.511 4.81531 58.6192 4.95656C57.9572 5.05178 57.8913 5.07241 57.4832 5.15811C56.646 5.33744 56.5158 6.16745 56.5158 6.16745L56.2459 7.2625C56.0948 7.96237 56.4933 7.93063 56.6797 7.87667C57.0477 7.76875 57.2454 7.66242 57.9877 7.49103C58.6996 7.33232 59.4596 7.21489 60.059 7.21806C60.9379 7.21806 61.6128 7.31169 62.0611 7.49896C62.5078 7.6894 62.7263 8.0195 62.7263 8.48767L62.6926 8.79397L62.3777 8.99235C61.1131 9.06694 60.2068 9.1812 59.1206 9.33831C58.0504 9.48591 57.1056 9.743 56.3214 10.0985C55.4842 10.4651 54.8527 10.9555 54.4221 11.5808C53.9963 12.2076 53.789 12.9662 53.789 13.8502C53.789 14.6961 54.0911 15.3896 54.6921 15.9229C55.2914 16.4482 56.0707 16.7116 57.0124 16.7116C57.6053 16.7053 58.0665 16.6672 58.3959 16.5831L59.4612 16.2244L60.3739 15.7292L61.1998 15.1801L61.2143 15.1976L61.1388 15.5499L61.1307 15.5563L61.1339 15.5626C61.0343 15.9879 61.2962 16.3402 61.7204 16.3783L61.7237 16.3863H61.7622C62.0402 16.3863 63.0011 16.3863 63.4591 16.3863H63.7708L63.8045 16.3752C64.24 16.3228 64.6514 15.9736 64.7429 15.5531L66.3562 8.68605L66.4414 8.12266L66.488 7.59577C66.4896 6.62451 66.0686 5.9056 65.2282 5.44377ZM61.6787 13.1757L61.3203 13.628L60.4607 14.0676C60.0525 14.2295 59.6637 14.3136 59.3118 14.3136C58.751 14.3136 58.3364 14.2343 58.0568 14.0756L57.6262 13.2614C57.6262 12.8171 57.7306 12.4695 57.9411 12.1949C58.1548 11.9363 58.481 11.7236 58.886 11.5681C59.2812 11.4348 59.7697 11.3268 60.3385 11.2459C60.8399 11.184 61.8329 11.0682 61.9615 11.0666L62.1173 11.3316C62.0948 11.4824 61.8104 12.6457 61.6787 13.1757Z" fill="black"/>
<path d="M54.5828 3.57729C54.3064 3.04881 53.8918 2.62191 53.368 2.28863C52.8313 1.95853 52.195 1.72683 51.451 1.59352C50.7199 1.46497 49.8474 1.39514 48.856 1.39355L44.2427 1.39673C43.7622 1.40466 43.3011 1.77285 43.1902 2.22515L40.0873 15.5656C39.9749 16.0179 40.2834 16.3925 40.7526 16.3925L42.962 16.3893C43.4312 16.3925 43.9117 16.0211 44.0225 15.564L44.7697 12.3249C44.879 11.8742 45.353 11.4949 45.8303 11.4981H46.4617C49.1629 11.4981 51.2566 10.949 52.7638 9.86188C54.2534 8.76208 55.007 7.32265 55.007 5.53408C54.999 4.75486 54.8624 4.09625 54.5828 3.57729ZM49.8249 7.94C49.1597 8.41293 48.2309 8.65416 47.0418 8.65416H46.4923C46.0183 8.65892 45.7113 8.27804 45.8174 7.82415L46.4858 4.99767C46.5839 4.54537 47.0627 4.16607 47.5399 4.17084L48.255 4.16607C49.1034 4.17084 49.7397 4.3089 50.1736 4.58822C50.6058 4.86753 50.8099 5.30555 50.8147 5.8864C50.8195 6.77196 50.4869 7.45438 49.8249 7.94Z" fill="black"/>
<path d="M73.5003 2.33119C73.6015 1.87572 73.3123 1.50594 72.8383 1.51229H70.8618C70.4569 1.51229 70.0922 1.80906 69.9138 2.17407L69.8045 2.3423L69.7049 2.77397L66.9427 15.1749L66.8527 15.5558L66.8559 15.5653C66.7644 15.9732 67.0182 16.2811 67.4103 16.3398L67.4441 16.3858H69.496C69.8977 16.3858 70.2753 16.0843 70.4473 15.7129L70.5533 15.5542L73.5067 2.33278L73.5003 2.33119Z" fill="black"/>
<path d="M40.1484 4.90545C39.6262 4.9118 37.5035 4.90545 37.5035 4.90545C37.0279 4.90545 36.4173 5.28475 36.1152 5.73705C36.1152 5.73705 32.9561 11.0916 32.6492 11.6296L32.2829 11.6249L31.2995 5.77355C31.1902 5.31332 30.7033 4.91974 30.0975 4.91974L28.1211 4.92291C27.6455 4.92291 27.353 5.29745 27.4607 5.75451C27.4607 5.75451 28.9615 14.1895 29.262 16.1749C29.4018 17.2699 29.2443 17.4651 29.2443 17.4651L27.2904 20.8264C27.0011 21.2835 27.157 21.6564 27.631 21.6564L29.916 21.6533C30.3916 21.6533 31.0167 21.2835 31.2995 20.8248L40.089 6.14174C40.089 6.14333 40.9342 4.888 40.1484 4.90545Z" fill="black"/>
</svg>
