<svg width="30" height="51" viewBox="0 0 30 51" fill="none" xmlns="http://www.w3.org/2000/svg">
<path d="M19.1229 28.1083V6.69063C19.1229 2.99545 16.1275 0 12.4323 0C8.73713 0 5.74168 2.99545 5.74168 6.69063V28.0987C-0.0412926 31.7883 -1.73844 39.4675 1.95116 45.2504C4.22809 48.8191 8.16579 50.9825 12.399 50.9905L12.4656 51C19.3254 50.9872 24.8758 45.4158 24.863 38.5561C24.855 34.3229 22.6916 30.3852 19.1229 28.1083ZM7.2063 47.6939C2.17073 44.7867 0.445526 38.3477 3.35276 33.3123C4.27683 31.7118 5.6058 30.3828 7.2063 29.4587C7.50172 29.2881 7.68313 28.9724 7.68182 28.6313V6.69063C7.68182 4.046 9.82572 1.9021 12.4704 1.9021C15.115 1.9021 17.2589 4.046 17.2589 6.69063V28.6313C17.2576 28.9724 17.439 29.2881 17.7344 29.4587C22.77 32.366 24.4952 38.8049 21.5879 43.8404C18.6807 48.8759 12.2417 50.6013 7.2063 47.6939Z" fill="#F1BA24"/>
<path d="M13.4167 31.7413V17.3138C13.4167 16.7886 12.9909 16.3628 12.4656 16.3628C11.9404 16.3628 11.5146 16.7886 11.5146 17.3138V31.7413C7.92188 32.2565 5.42704 35.5866 5.94227 39.1793C6.40734 42.4221 9.18963 44.8272 12.4656 44.8182C16.0951 44.8282 19.0455 41.8941 19.0556 38.2646C19.0646 34.9886 16.6595 32.2063 13.4167 31.7413ZM12.4656 42.9066C9.88663 42.9066 7.79599 40.8159 7.79599 38.2369C7.80122 35.6602 9.88877 33.5725 12.4656 33.5673C15.0446 33.5673 17.1353 35.6579 17.1353 38.2369C17.1353 40.8159 15.0445 42.9066 12.4656 42.9066Z" fill="#F1BA24"/>
<path d="M28.3957 6.53857H22.4516C21.9264 6.53857 21.5005 6.96441 21.5005 7.48962C21.5005 8.01484 21.9264 8.44068 22.4516 8.44068H28.3957C28.9209 8.44068 29.3467 8.01484 29.3467 7.48962C29.3467 6.96441 28.9209 6.53857 28.3957 6.53857Z" fill="#F1BA24"/>
<path d="M27.1308 11.2937H23.6404C23.1152 11.2937 22.6894 11.7195 22.6894 12.2448C22.6894 12.77 23.1152 13.1958 23.6404 13.1958H27.1308C27.656 13.1958 28.0818 12.77 28.0818 12.2448C28.0818 11.7195 27.656 11.2937 27.1308 11.2937Z" fill="#F1BA24"/>
<path d="M28.3957 16.0488H22.4516C21.9264 16.0488 21.5005 16.4747 21.5005 16.9999C21.5005 17.5251 21.9264 17.9509 22.4516 17.9509H28.3957C28.9209 17.9509 29.3467 17.5251 29.3467 16.9999C29.3467 16.4747 28.9209 16.0488 28.3957 16.0488Z" fill="#F1BA24"/>
<path d="M27.1308 20.8042H23.6404C23.1152 20.8042 22.6894 21.23 22.6894 21.7552C22.6894 22.2805 23.1152 22.7063 23.6404 22.7063H27.1308C27.656 22.7063 28.0818 22.2805 28.0818 21.7552C28.0818 21.23 27.656 20.8042 27.1308 20.8042Z" fill="#F1BA24"/>
<path d="M28.3957 25.5596H22.4516C21.9264 25.5596 21.5005 25.9854 21.5005 26.5106C21.5005 27.0358 21.9264 27.4617 22.4516 27.4617H28.3957C28.9209 27.4617 29.3467 27.0358 29.3467 26.5106C29.3467 25.9854 28.9209 25.5596 28.3957 25.5596Z" fill="#F1BA24"/>
</svg>
