<svg width="70" height="23" viewBox="0 0 70 23" fill="none" xmlns="http://www.w3.org/2000/svg">
<path d="M28.0285 0.373535L24.4709 22.1333H30.1606L33.7211 0.373535H28.0285Z" fill="black"/>
<path d="M19.7002 0.397643L14.1276 15.2373L13.5335 12.9967C12.4344 10.2969 9.31449 6.41954 5.65161 3.97601L10.7472 22.1226L16.7676 22.1119L25.7279 0.393066L19.7002 0.397643Z" fill="black"/>
<path d="M11.3735 1.95526C11.0428 0.629823 10.0842 0.234783 8.89451 0.1875H0.0731697L0 0.620671C6.86478 2.3564 11.4072 6.53864 13.292 11.5674L11.3735 1.95526Z" fill="black"/>
<path d="M45.2525 4.54528C47.1139 4.51477 48.4632 4.9388 49.511 5.37807L50.0246 5.62974L50.7944 0.91363C49.6675 0.47283 47.9012 0 45.6974 0C40.075 0 36.1121 2.95138 36.0814 7.18093C36.0448 10.3062 38.9043 12.0511 41.0643 13.0928C43.2813 14.1605 44.0247 14.8393 44.0145 15.7926C43.9969 17.2492 42.2467 17.9172 40.6121 17.9172C38.3336 17.9172 37.1233 17.5893 35.2546 16.7779L34.5214 16.4301L33.7209 21.3003C35.0526 21.9089 37.5097 22.432 40.0604 22.4595C46.0413 22.4595 49.928 19.5432 49.969 15.0238C49.9939 12.5514 48.4763 10.6646 45.1881 9.11649C43.1979 8.10676 41.9803 7.43565 41.992 6.41677C41.992 5.51229 43.0252 4.54528 45.2525 4.54528Z" fill="black"/>
<path d="M65.3962 0.397949H61.0002C59.6348 0.397949 58.6192 0.785372 58.0192 2.20389L49.571 22.1455H55.5461C55.5461 22.1455 56.5207 19.4641 56.7417 18.8768C57.3958 18.8768 63.2011 18.886 64.0279 18.886C64.1977 19.6456 64.7216 22.1455 64.7216 22.1455H70L65.3962 0.397949ZM58.3792 14.423C58.8475 13.1738 60.646 8.34165 60.646 8.34165C60.6153 8.40114 61.1099 7.08329 61.4041 6.26421L61.7875 8.14031C61.7875 8.14031 62.8777 13.3354 63.106 14.423H58.3792Z" fill="black"/>
</svg>
