<svg id="outline" height="512" viewBox="0 0 512 512" width="512" xmlns="http://www.w3.org/2000/svg"><path d="m352 152h-192c-79.40186 0-144 64.59863-144 144a64.07239 64.07239 0 0 0 64 64h352a64.07239 64.07239 0 0 0 64-64c0-79.40137-64.59814-144-144-144zm29.53784 19.44629 7.52075 12.53418a76.79325 76.79325 0 0 1 10.94141 39.50098v8.09375a77.22284 77.22284 0 0 1 -57.83594-36.85059l-16.03454-26.72461h25.87048a127.88518 127.88518 0 0 1 29.53784 3.44629zm-104.47925 12.53418a76.79325 76.79325 0 0 1 10.94141 39.50098v8.09375a77.22284 77.22284 0 0 1 -57.83594-36.85059l-16.03454-26.72461h53.34094zm-112.26025-.43359a78.62219 78.62219 0 0 1 11.20166 40.4414v7.61231a78.08836 78.08836 0 0 1 -58.65576-36.54493l-9.86206-15.77929a127.13848 127.13848 0 0 1 48.04028-11.18946zm267.20166 160.45312h-352a48.054 48.054 0 0 1 -48-48 128.04065 128.04065 0 0 1 61.30835-109.21191l10.46753 16.748a94.06545 94.06545 0 0 0 80.22412 44.46391 8.00008 8.00008 0 0 0 8-8v-16.01172a94.62734 94.62734 0 0 0 -13.48193-48.67383l-4.38868-7.31445h21.34107l20.97388 34.957a93.24615 93.24615 0 0 0 79.55566 45.043 8.00008 8.00008 0 0 0 8-8v-16.51855a92.79371 92.79371 0 0 0 -13.22168-47.7334l-4.6488-7.74805h21.34094l20.97388 34.957a93.24615 93.24615 0 0 0 79.55566 45.043 8.00008 8.00008 0 0 0 8-8v-16.51855a92.78774 92.78774 0 0 0 -11.13647-44.04664 128.17784 128.17784 0 0 1 75.13647 116.56519 48.054 48.054 0 0 1 -48 48z"/><path d="m80 304h16v16h-16z"/><path d="m136 264h16v16h-16z"/><path d="m192 288h16v16h-16z"/><path d="m272 280h16v16h-16z"/><path d="m328 296h16v16h-16z"/><path d="m392 264h16v16h-16z"/><path d="m432 288h16v16h-16z"/></svg>