<?xml version="1.0" encoding="utf-8"?>
<!-- Generator: Adobe Illustrator 16.0.0, SVG Export Plug-In . SVG Version: 6.00 Build 0)  -->
<!DOCTYPE svg PUBLIC "-//W3C//DTD SVG 1.1//EN" "http://www.w3.org/Graphics/SVG/1.1/DTD/svg11.dtd">
<svg version="1.1" id="Layer_1" xmlns="http://www.w3.org/2000/svg" xmlns:xlink="http://www.w3.org/1999/xlink" x="0px" y="0px"
	 width="841.89px" height="595.28px" viewBox="0 0 841.89 595.28" enable-background="new 0 0 841.89 595.28" xml:space="preserve">
<g id="pao">
	<path d="M486,410.28H342c-59.551,0-108,48.449-108,108c0.031,26.496,21.504,47.969,48,48h264c26.496-0.031,47.969-21.504,48-48
		C594,458.729,545.551,410.28,486,410.28L486,410.28z M508.152,424.866l5.641,9.398c5.371,8.949,8.207,19.191,8.207,29.625v6.07
		c-17.98-1.934-34.027-12.156-43.379-27.637l-12.023-20.043H486C493.461,422.276,500.895,423.144,508.152,424.866L508.152,424.866z
		 M429.793,434.265c5.371,8.949,8.207,19.191,8.207,29.625v6.07c-17.98-1.934-34.027-12.156-43.379-27.637l-12.023-20.043h40.003
		L429.793,434.265z M345.598,433.94c5.496,9.164,8.402,19.645,8.402,30.332v5.707c-18.129-1.797-34.391-11.926-43.992-27.406
		l-7.395-11.836c11.344-5.121,23.586-7.973,36.028-8.391L345.598,433.94z M546,554.28H282c-19.871-0.023-35.977-16.129-36-36
		c0.016-33.449,17.438-64.477,45.98-81.91l7.852,12.563c12.91,20.805,35.684,33.426,60.168,33.348c3.312,0,6-2.688,6-6v-12.008
		c0-12.859-3.496-25.48-10.113-36.508l-3.289-5.484h16.004l15.73,26.219c12.625,20.906,35.246,33.711,59.668,33.781
		c3.313,0,6-2.688,6-6V463.89c0-12.609-3.43-24.984-9.918-35.797l-3.484-5.813h16.004l15.73,26.219
		c12.625,20.906,35.246,33.711,59.668,33.781c3.313,0,6-2.688,6-6V463.89c-0.004-11.531-2.875-22.883-8.352-33.035
		c34.289,15.586,56.316,49.762,56.352,87.426C581.977,538.151,565.871,554.257,546,554.28L546,554.28z M546,554.28"/>
	<rect x="282" y="524.28" width="12" height="12"/>
	<rect x="324" y="494.28" width="12" height="12"/>
	<rect x="366" y="512.28" width="12" height="12"/>
	<rect x="426" y="506.28" width="12" height="12"/>
	<rect x="468" y="518.28" width="12" height="12"/>
	<rect x="516" y="494.28" width="12" height="12"/>
	<rect x="546" y="512.28" width="12" height="12"/>
</g>
<path id="vapor_x5F_1" fill="none" stroke="#000000" stroke-width="15" stroke-linecap="round" stroke-miterlimit="10" d="
	M516,56.28c0,0,58,181-42,212c-114.033,35.351-107.024,107.543-107.024,107.543"/>
<path id="vapor_x5F_2" fill="none" stroke="#000000" stroke-width="15" stroke-linecap="round" stroke-miterlimit="10" d="
	M599,94.28c0,0,65,115-125,126c-119.187,6.9-42,155.543-42,155.543"/>
<path id="vapor_x5F_3" fill="none" stroke="#000000" stroke-width="15" stroke-linecap="round" stroke-miterlimit="10" d="
	M581,72.28c0,0-116.229,26.004-118.19,121c-1.384,67.018-2,185.543-2,185.543"/>
</svg>
