<svg width="82" height="82" viewBox="0 0 82 82" fill="none" xmlns="http://www.w3.org/2000/svg">
<path d="M41 82C63.6437 82 82 63.6437 82 41C82 18.3563 63.6437 0 41 0C18.3563 0 0 18.3563 0 41C0 63.6437 18.3563 82 41 82Z" fill="black"/>
<path fill-rule="evenodd" clip-rule="evenodd" d="M64.8412 46.4262V45.7909H66.0906V38.8043H64.7142L64.7243 38.1689C65.49 38.1479 66.2281 38.1165 66.9406 38.0738C67.653 38.031 68.345 37.9786 69.0118 37.9145V45.7909H70.3249V46.4262H64.8412Z" fill="white"/>
<path fill-rule="evenodd" clip-rule="evenodd" d="M30.6173 28.0704V23.3839C30.6173 22.6681 30.5343 22.202 30.3671 21.982C30.2007 21.7661 29.9048 21.6563 29.4769 21.6563C28.7267 21.6563 28.1244 21.9485 27.6659 22.5314C27.2078 23.1148 26.9803 23.8915 26.9803 24.8613V26.5625C26.9803 27.5478 27.2078 28.3282 27.6626 28.904C28.1169 29.4837 28.7229 29.7716 29.4769 29.7716C29.8977 29.7716 30.1928 29.658 30.3629 29.4271C30.5339 29.1995 30.6173 28.7448 30.6173 28.0704ZM22.5704 35.1132V34.4313H23.8432V21.9518H22.3658V21.2699C23.1953 21.2397 23.9912 21.2054 24.7565 21.1601C25.5218 21.1186 26.264 21.0616 26.9803 20.9975V22.6945C27.321 22.1266 27.7347 21.702 28.2192 21.4179C28.7041 21.1371 29.2606 20.9975 29.8897 20.9975C31.0947 20.9975 32.0947 21.4443 32.8864 22.3349C33.6781 23.2251 34.072 24.3579 34.072 25.7255C34.072 27.0478 33.6705 28.1618 32.8675 29.0595C32.0641 29.9573 31.0716 30.4082 29.8897 30.4082C29.2531 30.4082 28.6932 30.2724 28.2112 29.9954C27.7309 29.7188 27.321 29.2946 26.9798 28.7263V34.4317H28.6165V35.1136H22.5704V35.1132ZM40.904 28.8169C40.4493 29.3583 39.9568 29.7523 39.4191 29.995C38.8851 30.2414 38.2405 30.3625 37.4945 30.3625C36.733 30.3625 36.1454 30.1693 35.7288 29.7867C35.316 29.4003 35.1077 28.8508 35.1077 28.1425C35.1077 27.1798 35.6228 26.4107 36.65 25.8353C37.6798 25.2628 39.0741 24.9753 40.8357 24.9753V22.8231C40.8357 22.3273 40.7296 21.9975 40.5213 21.8345C40.3088 21.6714 39.9078 21.588 39.3168 21.588C38.9337 21.588 38.6425 21.6333 38.4451 21.7209C38.2481 21.8118 38.1538 21.9405 38.1538 22.1111C38.1538 22.1568 38.2217 22.3009 38.3583 22.5507C38.4945 22.7963 38.5628 23.0469 38.5628 23.3009C38.5628 23.7288 38.4304 24.0587 38.1689 24.2896C37.9073 24.5205 37.5327 24.6341 37.044 24.6341C36.6119 24.6341 36.282 24.5172 36.0473 24.2783C35.8156 24.0398 35.6986 23.6949 35.6986 23.2439C35.6986 22.5319 36.0662 21.9786 36.7971 21.588C37.5285 21.1945 38.5662 20.9975 39.904 20.9975C40.4945 20.9975 41.0327 21.039 41.5142 21.1257C41.9949 21.2091 42.3893 21.3345 42.6995 21.4975C43.0482 21.6756 43.2904 21.8952 43.427 22.153C43.5632 22.4145 43.6311 22.8843 43.6311 23.5662V28.1576C43.6311 28.4267 43.6881 28.6241 43.8021 28.7452C43.9191 28.8705 44.0972 28.9309 44.3432 28.9309C44.4455 28.9309 44.5557 28.8969 44.6693 28.8286C44.7862 28.7599 44.8663 28.7263 44.9082 28.7263C44.9685 28.7263 45.0218 28.749 45.0628 28.7942C45.1081 28.8399 45.1311 28.8931 45.1311 28.961C45.1311 29.241 44.9149 29.5482 44.4836 29.8743C44.0473 30.2003 43.5549 30.363 42.9983 30.363C42.5016 30.363 42.07 30.2263 41.7028 29.9497C41.3323 29.6769 41.067 29.298 40.904 28.8169ZM40.8357 25.5889H40.5708C39.6538 25.5889 39.0092 25.7213 38.6383 25.9824C38.2715 26.2443 38.0855 26.6874 38.0855 27.3164C38.0855 27.9606 38.184 28.4191 38.3809 28.6953C38.5741 28.9719 38.896 29.1128 39.3394 29.1128C39.7829 29.1128 40.1425 28.9648 40.4191 28.6693C40.6957 28.3739 40.8357 27.9795 40.8357 27.495V25.5889ZM37.2368 19.4061H36.4036C36.5746 18.4288 36.8587 17.7087 37.2602 17.2431C37.6575 16.7766 38.1923 16.5423 38.8587 16.5423C38.9761 16.5423 39.1052 16.5499 39.2372 16.5687C39.37 16.5876 39.5251 16.6215 39.7032 16.6635L40.9912 16.9967C41.1123 17.0273 41.2032 17.0457 41.272 17.0537C41.3357 17.0612 41.3964 17.0654 41.4497 17.0654C41.7221 17.0654 41.9463 16.9782 42.1207 16.8076C42.2946 16.6371 42.4308 16.3755 42.5255 16.0193H43.3596C43.2041 16.9514 42.9195 17.6635 42.5029 18.1521C42.0901 18.6412 41.5637 18.8835 40.9266 18.8835C40.7908 18.8835 40.6655 18.8764 40.5482 18.8609C40.4308 18.8454 40.313 18.8231 40.2036 18.793L38.9497 18.4707L38.8705 18.4594C38.5976 18.3948 38.4191 18.3609 38.3365 18.3609C38.0482 18.3609 37.8135 18.448 37.6316 18.622C37.4492 18.7959 37.3164 19.0574 37.2368 19.4061ZM45.4409 25.7024C45.4409 24.3194 45.9329 23.1907 46.9178 22.3118C47.9027 21.4367 49.1756 20.9975 50.7363 20.9975C52.3047 20.9975 53.5855 21.4334 54.5741 22.3076C55.5628 23.1794 56.0549 24.3047 56.0549 25.6798C56.0549 27.0549 55.5591 28.184 54.5662 29.0625C53.5741 29.9455 52.2967 30.3848 50.7359 30.3848C49.1747 30.3848 47.9019 29.9489 46.9174 29.0742C45.9329 28.2029 45.4409 27.0775 45.4409 25.7024ZM50.759 21.5432C50.0586 21.5432 49.5809 21.7666 49.3348 22.2138C49.0888 22.6643 48.9635 23.8198 48.9635 25.6836V26.5964C48.9635 28.0096 49.0888 28.9036 49.339 29.2787C49.593 29.6534 50.0662 29.8391 50.7594 29.8391C51.453 29.8391 51.9228 29.627 52.1651 29.2066C52.4115 28.7825 52.5327 27.7217 52.5327 26.0205V24.7058C52.5327 23.3533 52.4073 22.4862 52.1571 22.1107C51.904 21.7322 51.4371 21.5432 50.759 21.5432Z" fill="white"/>
<path fill-rule="evenodd" clip-rule="evenodd" d="M13.0088 45.7913V38.8047H11.6748V38.1693H13.0088V37.7251C13.0088 36.1865 13.4284 34.9158 14.272 33.9032C15.1124 32.894 16.1601 32.3894 17.4162 32.3894C18.1606 32.3894 18.7607 32.5591 19.2121 32.8973C19.6639 33.2326 19.8894 33.6702 19.8894 34.21C19.8894 34.6442 19.7737 34.9795 19.544 35.2121C19.3114 35.4481 18.9833 35.5654 18.5558 35.5654C18.1857 35.5654 17.8785 35.456 17.6421 35.2335C17.4057 35.0109 17.2859 34.728 17.2859 34.3827C17.2859 34.132 17.3772 33.899 17.5608 33.6765C17.7444 33.4543 17.8324 33.3206 17.8324 33.2712C17.8324 33.1899 17.7758 33.1195 17.6631 33.0667C17.5499 33.0101 17.4015 32.982 17.2217 32.982C16.7875 32.982 16.4564 33.1509 16.2192 33.4937C15.9862 33.8357 15.8668 34.3303 15.8668 34.9724C15.8668 35.3144 15.8772 35.7557 15.8982 36.2917C15.9191 36.8248 15.9296 37.1848 15.9296 37.3646V38.1689H17.7511V38.8043H15.9296V45.7909H17.412V46.4263H11.7808V45.7909H13.0088V45.7913Z" fill="white"/>
<path fill-rule="evenodd" clip-rule="evenodd" d="M28.6719 37.9149V45.7703H30.0273V46.4053C29.3672 46.4053 28.6861 46.4195 27.9913 46.4484C27.296 46.4753 26.555 46.5184 25.7716 46.5754V44.4862C25.3588 45.2376 24.8823 45.7846 24.3425 46.127C23.8064 46.469 23.1606 46.6387 22.4129 46.6387C21.9359 46.6387 21.5193 46.5717 21.1635 46.438C20.8106 46.3034 20.5252 46.1023 20.3136 45.8411C20.1895 45.6752 20.1011 45.474 20.0487 45.2414C19.9954 45.0042 19.9707 44.6689 19.9707 44.228V43.3353V38.7619H18.5944V38.1266C19.4129 38.1127 20.1748 38.0876 20.8777 38.0528C21.5801 38.0134 22.2293 37.9677 22.8286 37.9145V44.5872C22.8286 44.9753 22.8995 45.2582 23.0369 45.4375C23.1744 45.6182 23.3965 45.7058 23.7004 45.7058C24.2155 45.7058 24.6878 45.3956 25.112 44.7787C25.539 44.1601 25.7503 43.4656 25.7503 42.6857V38.7619H24.2473V38.1165C24.9032 38.1165 25.5881 38.0985 26.3043 38.0666C27.021 38.0314 27.811 37.982 28.6719 37.9149Z" fill="white"/>
<path fill-rule="evenodd" clip-rule="evenodd" d="M30.8419 46.4262V45.7909H31.9639V38.8043H30.8206V38.1689C31.4911 38.1408 32.1575 38.109 32.821 38.0666C33.4882 38.0281 34.155 37.9753 34.8218 37.9149V40.184C35.1043 39.4711 35.4744 38.9179 35.9333 38.5151C36.3918 38.1165 36.8826 37.9149 37.4082 37.9149C37.9299 37.9149 38.3683 38.0847 38.7212 38.4233C39.0704 38.7624 39.2468 39.1785 39.2468 39.6756C39.2468 40.1169 39.1056 40.4803 38.8235 40.7661C38.5372 41.052 38.1814 41.197 37.7439 41.197C37.3658 41.197 37.0448 41.0587 36.7837 40.7837C36.5192 40.505 36.3885 40.1735 36.3885 39.7783C36.3885 39.6266 36.4312 39.4711 36.5121 39.3127C36.5972 39.1538 36.6391 39.0478 36.6391 38.9912C36.6391 38.956 36.6219 38.9279 36.59 38.9036C36.5615 38.8785 36.5234 38.8684 36.474 38.8684C36.1701 38.8684 35.8319 39.2104 35.4538 39.8919C35.0766 40.5759 34.8859 41.293 34.8859 42.0444V45.7917H36.4107V46.4271H30.8419V46.4262Z" fill="white"/>
<path fill-rule="evenodd" clip-rule="evenodd" d="M41.3142 44.5457V38.7829H40.1072V38.1479H41.3142V35.5436C41.4517 35.5754 41.6072 35.5968 41.7765 35.6106C41.9458 35.6215 42.1965 35.6282 42.5355 35.6282C42.8394 35.6282 43.121 35.6215 43.3863 35.6035C43.647 35.5897 43.9043 35.5683 44.152 35.5436V38.1479H45.8452V38.7829H44.152V44.5457C44.152 44.9015 44.2011 45.1454 44.2962 45.2758C44.3918 45.4065 44.5716 45.4736 44.8322 45.4736C45.0934 45.4736 45.3088 45.3634 45.4785 45.1492C45.6474 44.9338 45.7467 44.6375 45.782 44.267H46.3532C46.3109 44.9836 46.0221 45.5587 45.4852 45.9929C44.9454 46.4225 44.2539 46.6383 43.4035 46.6383C42.6059 46.6383 42.0556 46.5042 41.7593 46.2397C41.4626 45.9748 41.3142 45.4095 41.3142 44.5457Z" fill="white"/>
<path fill-rule="evenodd" clip-rule="evenodd" d="M47.0866 46.4262V45.7909H48.3352V38.8043H46.9592L46.9697 38.1689C47.7354 38.1479 48.4731 38.1165 49.186 38.0738C49.8985 38.031 50.5904 37.9786 51.2568 37.9145V45.7909H52.5695V46.4262H47.0866Z" fill="white"/>
<path fill-rule="evenodd" clip-rule="evenodd" d="M53.1302 45.7912H54.4006V38.7619H53.0037V38.1056C53.7476 38.1056 54.4752 38.0913 55.1843 38.0666C55.8934 38.0423 56.5988 38.0067 57.3016 37.9572V40.057C57.7078 39.3265 58.1805 38.7938 58.7128 38.4585C59.2455 38.1232 59.9022 37.9576 60.6709 37.9576C61.5816 37.9576 62.217 38.1483 62.5699 38.5255C62.9261 38.9069 63.1026 39.7116 63.1026 40.943V45.7917H64.3306V46.427H59.1646V45.7917H60.2442V39.9409C60.2442 39.5565 60.1776 39.2774 60.0401 39.1043C59.9027 38.9316 59.6801 38.8466 59.3771 38.8466C58.862 38.8466 58.3888 39.1504 57.9613 39.7573C57.5347 40.3642 57.323 41.0561 57.323 41.8323V45.7912H58.3817V46.4266H53.1307V45.7912H53.1302Z" fill="white"/>
<path fill-rule="evenodd" clip-rule="evenodd" d="M58.5682 33.3445V32.728C58.5682 32.373 58.4844 32.0909 58.3164 31.8805C58.1483 31.6701 57.9278 31.5641 57.6537 31.5641C57.4999 31.5641 57.3943 31.6035 57.3348 31.6852C57.2753 31.7649 57.2468 31.9258 57.2468 32.1676V33.8843C57.2468 34.1299 57.277 34.295 57.3373 34.3822C57.3985 34.4694 57.5033 34.5117 57.6537 34.5117C57.9278 34.5117 58.1483 34.4061 58.3164 34.1953C58.4844 33.9828 58.5682 33.6999 58.5682 33.3445ZM58.5682 34.6437V34.1299C58.4442 34.334 58.2941 34.4866 58.1185 34.5897C57.9421 34.6919 57.7384 34.7427 57.5041 34.7427C57.0733 34.7427 56.7128 34.5792 56.4211 34.2531C56.1298 33.9271 55.9832 33.5226 55.9832 33.0419C55.9832 32.5448 56.1282 32.1337 56.4157 31.8097C56.7036 31.4866 57.0649 31.324 57.5041 31.324C57.7355 31.324 57.9392 31.3763 58.1169 31.4794C58.2941 31.5825 58.4442 31.7368 58.5682 31.9421V29.5239H57.932L57.9366 29.2758C58.2774 29.2674 58.5955 29.2552 58.8889 29.2385C59.1818 29.2209 59.4463 29.1999 59.6831 29.1768V34.396H60.1286V34.6437H58.5682ZM60.5347 33.0335C60.5347 32.531 60.7137 32.1211 61.0716 31.8013C61.4295 31.4832 61.8918 31.324 62.4593 31.324C63.0288 31.324 63.4941 31.4824 63.8532 31.8005C64.2124 32.1165 64.3914 32.5256 64.3914 33.0256C64.3914 33.5251 64.2107 33.935 63.8507 34.2548C63.4899 34.5754 63.0259 34.7347 62.4593 34.7347C61.8918 34.7347 61.4295 34.5767 61.0716 34.259C60.7137 33.9421 60.5347 33.5331 60.5347 33.0335ZM62.4677 31.5222C62.2128 31.5222 62.0397 31.6031 61.95 31.7657C61.8608 31.9296 61.8155 32.3495 61.8155 33.0264V33.3583C61.8155 33.8717 61.8608 34.1965 61.9517 34.3328C62.0439 34.4694 62.2158 34.5364 62.4677 34.5364C62.7195 34.5364 62.8905 34.4593 62.9781 34.3064C63.0678 34.1521 63.1114 33.7665 63.1114 33.1488V32.6714C63.1114 32.1798 63.0661 31.8646 62.9752 31.7284C62.883 31.5909 62.7141 31.5222 62.4677 31.5222Z" fill="white"/>
<path fill-rule="evenodd" clip-rule="evenodd" d="M25.8591 56.2041H26.2171V54.8961H27.3868V54.575H26.2171V53.7423H27.6114V53.4216H25.8591V56.2041ZM28.5314 56.2041H30.2673V55.8835H28.8893V54.8961H30.0264V54.575H28.8893V53.7423H30.2673V53.4216H28.5314V56.2041ZM31.497 56.2041H32.6399V55.8835H32.2447V53.7423H32.6399V53.4216H31.497V53.7423H31.8868V55.8835H31.497V56.2041ZM34.6705 56.2041H35.0285V53.7423H35.7816V53.4216H33.9019V53.7423H34.6705V56.2041ZM37.6152 53.373C37.1559 53.373 36.6278 53.705 36.6278 54.8156C36.6278 55.9317 37.1668 56.2523 37.6152 56.2523C38.5875 56.2523 38.6031 55.039 38.6031 54.8156C38.6031 53.6941 38.0582 53.373 37.6152 53.373ZM37.6152 53.71C38.155 53.71 38.2296 54.4049 38.2296 54.816C38.2296 55.2213 38.155 55.9158 37.6152 55.9158C37.0758 55.9158 37.0012 55.2213 37.0012 54.816C37.0012 54.4049 37.0758 53.71 37.6152 53.71ZM44.0901 55.4459L44.3466 56.2737L44.6986 56.1459L43.8227 53.4221H43.3633L42.4874 56.1459L42.8403 56.2737L43.1014 55.4459H44.0901ZM43.9886 55.1253H43.1982L43.5926 53.8378L43.9886 55.1253ZM49.5737 55.4191L50.1986 53.9501H50.2091L50.2787 56.2041H50.6575L50.5456 53.4216H50.0754L49.5733 54.6278L49.0716 53.4216H48.6018L48.4891 56.2041H48.8683L48.9379 53.9501H48.9484L49.5737 55.4191ZM52.8411 55.4459L53.0976 56.2737L53.4501 56.1459L52.5741 53.4221H52.1144L51.2388 56.1459L51.5909 56.2737L51.8528 55.4459H52.8411ZM52.7401 55.1253H51.9497L52.344 53.8378L52.7401 55.1253ZM52.8952 52.5729C52.8629 52.679 52.8202 52.9032 52.6705 52.9032C52.5746 52.9032 52.4677 52.8127 52.3931 52.754C52.2862 52.6739 52.1844 52.5939 52.0402 52.5939C51.7305 52.5939 51.6131 52.8986 51.5226 53.1442L51.7841 53.2448C51.8323 53.1287 51.8801 52.9141 52.0402 52.9141C52.1261 52.9141 52.243 53.0055 52.3021 53.0532C52.4245 53.1496 52.5205 53.2188 52.6865 53.2188C53.0012 53.2188 53.0976 52.9036 53.1672 52.6576L52.8952 52.5729ZM55.1186 53.373C54.6588 53.373 54.1303 53.705 54.1303 54.8156C54.1303 55.9317 54.6697 56.2523 55.1186 56.2523C56.0901 56.2523 56.106 55.039 56.106 54.8156C56.106 53.6941 55.5616 53.373 55.1186 53.373ZM55.1186 53.71C55.658 53.71 55.7326 54.4049 55.7326 54.816C55.7326 55.2213 55.658 55.9158 55.1186 55.9158C54.5792 55.9158 54.5037 55.2213 54.5037 54.816C54.5037 54.4049 54.5787 53.71 55.1186 53.71Z" fill="white"/>
<path d="M54.1543 68.5034C50.161 70.4309 45.7914 71.4535 41.3572 71.4983C30.0546 71.614 19.6372 65.3978 14.3706 55.3969" stroke="white" stroke-width="0.7087" stroke-miterlimit="22.9256"/>
<path fill-rule="evenodd" clip-rule="evenodd" d="M70.2455 53.0851C70.233 54.9367 69.8248 55.6635 68.8273 55.5306C68.8981 55.1375 68.9786 54.7418 68.865 54.3491C68.8038 54.1366 68.9044 53.9971 69.0414 53.8843C69.4069 53.5826 69.7795 53.2938 70.2455 53.0851Z" fill="white"/>
<path fill-rule="evenodd" clip-rule="evenodd" d="M68.0787 53.0729C68.2141 53.6052 68.3545 54.0532 68.4371 54.5122C68.515 54.9401 68.5683 55.4539 68.176 55.7083C67.8533 55.917 67.5284 56.1253 67.2837 56.3592C66.7095 55.0872 67.093 54.047 68.0787 53.0729Z" fill="white"/>
<path fill-rule="evenodd" clip-rule="evenodd" d="M64.4407 60.5465C64.807 59.5163 65.0555 58.5922 66.0786 58.1718C66.9931 57.7963 68.3652 57.5398 68.9088 57.7452C68.6242 58.0671 68.4633 58.4526 68.255 58.8122C68.0216 59.2171 67.7684 59.6681 67.25 59.7385C66.3128 59.8655 65.3988 60.0574 64.4407 60.5465Z" fill="white" stroke="black" stroke-width="0.216" stroke-miterlimit="22.9256"/>
<path fill-rule="evenodd" clip-rule="evenodd" d="M67.7774 60.0976C66.7069 62.5922 65.5804 62.7871 63.4727 62.5993C63.6872 61.0964 65.2778 60.163 67.7774 60.0976Z" fill="white" stroke="black" stroke-width="0.216" stroke-miterlimit="22.9256"/>
<path fill-rule="evenodd" clip-rule="evenodd" d="M65.5804 63.163C64.943 64.5541 63.2414 65.0884 61.5205 64.4376C62.3906 63.047 63.7058 62.7636 65.5804 63.163Z" fill="white" stroke="black" stroke-width="0.216" stroke-miterlimit="22.9256"/>
<path fill-rule="evenodd" clip-rule="evenodd" d="M62.9807 65.1425C62.3902 65.7381 61.9204 66.3269 61.2783 66.7548C60.1719 67.4921 59.1706 66.702 58.0269 66.6605C58.2167 66.3332 58.3491 66.119 58.4699 65.8982C58.8823 65.1383 59.4975 64.7486 60.3814 64.8152C61.2134 64.8785 62.0478 64.9108 62.9807 65.1425Z" fill="white" stroke="black" stroke-width="0.216" stroke-miterlimit="22.9256"/>
<path fill-rule="evenodd" clip-rule="evenodd" d="M54.8436 67.7427C55.1311 67.4564 55.3319 67.0528 55.7883 66.9707C57.0062 66.7527 58.1663 67.0591 59.3608 67.3286C58.2644 68.8772 55.7116 69.0955 54.8436 67.7427Z" fill="white" stroke="black" stroke-width="0.216" stroke-miterlimit="22.9256"/>
<path fill-rule="evenodd" clip-rule="evenodd" d="M56.718 63.5394C56.8881 65.1832 56.3789 66.4807 54.6995 67.1178C53.7834 66.2364 54.8379 64.4023 56.718 63.5394Z" fill="white" stroke="black" stroke-width="0.216" stroke-miterlimit="22.9256"/>
<path fill-rule="evenodd" clip-rule="evenodd" d="M59.7325 62.127C59.6487 63.1475 59.5322 63.9895 58.9794 64.6479C58.5431 65.1672 58.1323 65.6898 57.813 66.2862C57.735 66.4312 57.6567 66.5821 57.4488 66.5582C57.1013 66.5201 56.753 66.4824 56.3188 66.4363C56.8561 65.839 56.9798 65.1789 57.0703 64.5071C57.1147 64.1789 57.181 63.8545 57.44 63.6182C58.0883 63.0264 58.9257 62.7502 59.7325 62.127Z" fill="white" stroke="black" stroke-width="0.216" stroke-miterlimit="22.9256"/>
<path fill-rule="evenodd" clip-rule="evenodd" d="M59.5029 64.4552C59.751 63.9141 59.9698 63.4225 59.9732 62.894C59.9824 61.6521 61.0256 61.2301 61.7267 60.4925C62.4677 61.8273 62.1521 63.4749 61.0453 64.3772C60.9476 64.4564 60.8483 64.4547 60.7406 64.4547C60.36 64.4552 59.9795 64.4552 59.5029 64.4552Z" fill="white" stroke="black" stroke-width="0.216" stroke-miterlimit="22.9256"/>
<path fill-rule="evenodd" clip-rule="evenodd" d="M63.9794 57.7003C64.5439 58.969 64.4391 60.184 63.6931 61.2108C63.466 61.5222 63.2074 61.8278 63.1562 62.2125C63.0858 62.7402 62.7204 62.8969 62.2656 63.0771C62.3821 62.4698 62.6286 61.907 62.4375 61.3638C62.1487 60.5449 62.3901 59.8567 62.823 59.1999C63.1646 58.6807 63.4609 58.1148 63.9794 57.7003Z" fill="white" stroke="black" stroke-width="0.216" stroke-miterlimit="22.9256"/>
<path fill-rule="evenodd" clip-rule="evenodd" d="M55.8931 69.9476C55.1249 69.6986 54.7166 69.1588 54.8688 68.6123C55.3855 68.9078 55.7829 69.2783 55.8931 69.9476Z" fill="white"/>
<path fill-rule="evenodd" clip-rule="evenodd" d="M54.3085 67.7838C53.5914 67.5449 53.2988 67.1832 53.3101 66.6057C53.7079 66.9217 54.0809 67.2021 54.3085 67.7838Z" fill="white"/>
<path fill-rule="evenodd" clip-rule="evenodd" d="M64.6302 58.9459C64.3243 58.1362 64.2229 57.4371 64.8142 56.793C65.2941 56.2716 65.6512 55.6303 66.3142 55.233C66.5007 55.6815 66.6076 56.0985 66.5753 56.5335C66.5208 57.267 66.3628 57.9275 65.5141 58.1815C65.157 58.2883 64.867 58.5612 64.6302 58.9459Z" fill="white" stroke="black" stroke-width="0.216" stroke-miterlimit="22.9256"/>
<path fill-rule="evenodd" clip-rule="evenodd" d="M69.6039 56.1068C69.1957 57.663 67.9078 57.334 66.8445 57.6098C67.4476 56.3529 68.3914 55.8566 69.6039 56.1068Z" fill="white" stroke="black" stroke-width="0.216" stroke-miterlimit="22.9256"/>
<path fill-rule="evenodd" clip-rule="evenodd" d="M48.3859 35.8055C48.3859 35.4995 48.4953 35.2384 48.7161 35.0197C48.937 34.8013 49.2006 34.6923 49.507 34.6923C49.8083 34.6923 50.0661 34.7988 50.2769 35.0146C50.4869 35.2305 50.5912 35.4945 50.5912 35.8055C50.5912 36.1148 50.4844 36.378 50.2714 36.5989C50.0585 36.8202 49.8004 36.9295 49.4944 36.9295C49.1855 36.9295 48.924 36.8202 48.7086 36.5989C48.4927 36.378 48.3859 36.1148 48.3859 35.8055Z" fill="white"/>
<path fill-rule="evenodd" clip-rule="evenodd" d="M66.2084 35.8055C66.2084 35.4995 66.3182 35.2384 66.5386 35.0197C66.7595 34.8013 67.0231 34.6923 67.3299 34.6923C67.6308 34.6923 67.889 34.7988 68.0998 35.0146C68.3098 35.2305 68.4137 35.4945 68.4137 35.8055C68.4137 36.1148 68.3073 36.378 68.0944 36.5989C67.881 36.8202 67.6225 36.9295 67.3165 36.9295C67.008 36.9295 66.7465 36.8202 66.5315 36.5989C66.3148 36.378 66.2084 36.1148 66.2084 35.8055Z" fill="white"/>
</svg>
