<svg width="294" height="170" viewBox="0 0 294 170" fill="none" xmlns="http://www.w3.org/2000/svg">
<path d="M68.5263 42.7368C68.5263 42.7368 69.0979 43.1394 70.2438 43.939C71.3869 44.7414 71.5587 45.7156 70.759 46.8587C67.3241 51.5549 62.4857 56.3638 56.2466 61.2853C50.0047 66.2096 44.2512 68.9012 38.9862 69.3573C37.4968 71.9926 35.6639 74.2816 33.4903 76.2271C29.253 80.0055 24.5596 81.8947 19.4072 81.8947C18.4894 81.8947 17.6307 81.8679 16.831 81.8089C16.0286 81.7525 15.0545 81.5808 13.9114 81.2936C12.7655 81.0092 11.6787 80.5798 10.6482 80.0055C9.61773 79.434 8.55772 78.7174 7.47092 77.8587C6.38137 77 5.40997 75.9132 4.55125 74.5956C3.69252 73.2807 2.91967 71.7913 2.23269 70.1302C1.54571 68.4718 1.00368 66.4377 0.601108 64.0332C0.201285 61.6288 0 59.0526 0 56.3047C0 51.7267 1.00368 47.0305 3.00554 42.2216C5.0074 37.4127 8.1579 33.205 12.4515 29.5983C16.7452 25.9917 21.5808 24.1884 26.964 24.1884C28.9095 24.1884 30.7692 24.6177 32.5457 25.4764C34.3195 26.3352 36.0074 27.6823 37.6122 29.5125C39.2142 31.3453 40.5319 33.578 41.5623 36.2105V36.3823L41.7341 36.554V36.7258C42.9926 40.5041 43.6233 44.8569 43.6233 49.7784C43.6233 55.3896 42.7646 60.4266 41.0471 64.892C45.3971 63.8615 50.1201 61.2585 55.2161 57.0776C60.3094 52.8993 64.3454 48.6916 67.3241 44.4543C68.1238 43.3111 68.5263 42.7368 68.5263 42.7368ZM38.2992 60.4266C39.2142 57.1071 39.6731 53.5568 39.6731 49.7784C39.6731 45.2003 39.0425 41.2502 37.7839 37.928C36.0665 34.1496 33.8338 32.2604 31.0859 32.2604C28.2225 32.2604 25.4746 33.1782 22.8421 35.0083C20.2069 36.8412 18.0037 39.6186 16.2299 43.3379C14.4534 47.06 13.5679 51.2114 13.5679 55.7895C13.5679 62.2031 14.3971 67.2401 16.0582 70.903C17.7165 74.5688 20.0351 76.3989 23.0139 76.3989C25.1875 76.3989 27.3075 75.6556 29.3684 74.1662C30.0554 73.71 30.6833 73.1948 31.2576 72.6205C31.3703 72.6205 31.4294 72.5642 31.4294 72.4487L31.6011 72.277C32.7443 71.1339 33.7747 69.9316 34.6925 68.6704C33.6621 67.9834 33.0877 67.012 32.9751 65.7507C32.8597 64.4921 33.2595 63.3463 34.1773 62.3158C35.0924 61.2853 36.2382 60.6574 37.6122 60.4266C37.8403 60.3139 38.0684 60.3139 38.2992 60.4266Z" fill="white"/>
<path d="M168.136 42.7368C168.136 42.7368 168.678 43.1394 169.767 43.9391C170.854 44.7414 170.996 45.6565 170.197 46.687C167.905 49.7784 164.958 52.5263 161.352 54.9307C157.745 57.3352 154.624 59.0822 151.992 60.169C149.356 61.2585 145.578 62.6593 140.656 64.3767C140.541 64.3767 140.313 64.4358 139.969 64.5485C139.626 64.6639 139.339 64.7793 139.111 64.892C136.591 73.8227 132.869 81.2936 127.947 87.3047C123.023 93.3158 117.412 96.3213 111.116 96.3213C109.627 96.3213 108.309 95.9188 107.166 95.1191L106.994 94.9474C106.192 94.3731 105.561 93.6888 105.105 92.8864C104.418 91.7433 104.075 90.4257 104.075 88.9363C104.075 87.1062 104.646 85.217 105.792 83.2687C110.027 75.5992 117.012 69.5882 126.745 65.2355C128.691 58.0222 129.665 51.4395 129.665 45.4848C129.665 43.0803 129.463 40.7913 129.064 38.615C128.661 36.4413 128.089 34.6085 127.346 33.1191C126.6 31.6325 125.715 30.8864 124.684 30.8864C123.31 30.8864 121.421 31.8042 119.017 33.6343C115.81 36.4977 112.804 40.1607 110 44.626C107.193 49.0914 104.933 53.7285 103.216 58.5374C102.642 68.4986 102.298 78.6316 102.185 88.9363C101.842 120.079 103.959 144.466 108.54 162.1C108.768 163.243 108.884 164.273 108.884 165.191C108.884 167.708 107.909 169.254 105.964 169.828C105.62 169.941 105.218 170 104.762 170C103.272 170 101.783 169.399 100.296 168.197C98.8069 166.994 97.7764 165.476 97.2049 163.645C94.3415 155.402 92.3101 143.981 91.1079 129.382C89.9057 114.784 89.4763 100.556 89.8198 86.7036C90.1633 72.8513 90.794 60.3407 91.709 49.1773C92.6241 38.0138 93.5982 30.9455 94.6287 27.9667C95.0848 26.4801 96.0885 25.4201 97.6342 24.7895C99.1799 24.1616 100.696 24.0757 102.185 24.5318C103.672 24.9907 104.848 25.879 105.706 27.1939C106.565 28.5115 106.764 30.1994 106.307 32.2604C105.62 35.0083 104.933 39.6454 104.246 46.1717C106.192 42.6242 108.309 39.4737 110.601 36.7258C112.088 34.6648 113.805 32.8347 115.753 31.2299C120.675 26.5365 125.484 24.1884 130.18 24.1884C134.414 24.1884 137.565 26.3647 139.626 30.7147C141.343 34.1496 142.202 38.7867 142.202 44.626C142.202 49.5503 141.628 54.7027 140.485 60.0831C144.835 58.5965 148.27 57.3352 150.789 56.3047C153.306 55.2742 156.113 53.7017 159.205 51.5817C162.296 49.4644 164.872 47.0305 166.933 44.2825C167.733 43.2521 168.136 42.7368 168.136 42.7368ZM109.055 91.169C115.465 90.2539 120.846 83.3841 125.199 70.5596C117.985 74.2253 112.718 79.0905 109.398 85.1579C108.024 87.5623 107.793 89.4515 108.711 90.8255C108.824 90.9409 108.939 91.0563 109.055 91.169Z" fill="white"/>
<path d="M233.913 42.7368C233.913 42.7368 234.514 43.0803 235.716 43.7673C236.918 44.4543 237.176 45.3721 236.489 46.5152L235.287 48.5762C229.447 58.5374 224.695 65.8661 221.032 70.5596C220.916 70.675 220.86 70.7904 220.86 70.903L220.517 71.0748C220.517 71.1902 220.457 71.2465 220.345 71.2465C214.618 78.3472 209.525 81.8947 205.06 81.8947C200.938 81.8947 197.615 80.1773 195.098 76.7424C192.578 73.1948 191.033 67.8707 190.461 60.7701C189.431 63.4053 188.341 65.8098 187.198 67.9834C182.158 77.2576 176.206 81.8947 169.337 81.8947C165.443 81.8947 162.037 80.2364 159.118 76.9141C156.198 73.5946 154.738 68.4423 154.738 61.4571C154.738 52.1828 157.859 43.6546 164.098 35.867C170.337 28.0822 176.662 24.1884 183.076 24.1884C187.541 24.1884 190.976 25.2779 193.381 27.4515C193.609 27.5669 193.837 27.7387 194.068 27.9667H194.24C194.468 26.9363 195.069 26.1071 196.043 25.4764C197.014 24.8485 198.045 24.4755 199.134 24.3601C200.221 24.2474 201.281 24.3038 202.312 24.5318C203.914 24.9907 205.145 25.9058 206.004 27.2798C206.863 28.6537 207.005 30.3148 206.433 32.2604C205.288 36.7258 204.373 41.5346 203.686 46.687C202.999 51.8393 202.827 56.9353 203.17 61.9723C203.514 67.012 204.544 70.6186 206.262 72.7922C207.52 74.2816 209.066 74.9686 210.899 74.8532C211.929 74.5097 214.103 72.3924 217.425 68.4986L217.597 68.1551H217.769C221.316 63.6897 225.953 56.4764 231.68 46.5152L232.882 44.4543C233.569 43.3111 233.913 42.7368 233.913 42.7368ZM190.633 48.4044C190.976 43.024 191.663 37.928 192.694 33.1191C192.463 32.6629 192.235 32.2604 192.007 31.9169C191.663 31.4607 191.261 31.0018 190.805 30.5429C189.887 30.0868 188.685 30.0277 187.198 30.3712C182.733 31.6325 178.353 35.4377 174.059 41.7922C169.766 48.1468 167.619 55.1616 167.619 62.831C167.619 66.8402 168.22 69.9584 169.422 72.1911C170.625 74.4238 171.854 75.5402 173.115 75.5402C174.832 75.5402 176.662 74.5956 178.611 72.7064C180.556 70.8172 182.217 68.5577 183.591 65.9224V65.7507C185.652 62.0877 187.885 56.6482 190.289 49.4349C190.289 49.3222 190.316 49.1505 190.375 48.9197C190.432 48.6916 190.517 48.5198 190.633 48.4044Z" fill="white"/>
<path d="M291.274 42.7368C291.274 42.7368 291.845 43.1394 292.991 43.939C294.134 44.7414 294.306 45.7156 293.506 46.8587C290.071 51.5549 285.233 56.3638 278.994 61.2853C272.752 66.2096 266.998 68.9012 261.733 69.3573C260.244 71.9926 258.411 74.2816 256.238 76.2271C252 80.0055 247.307 81.8947 242.155 81.8947C241.237 81.8947 240.378 81.8679 239.578 81.8089C238.776 81.7525 237.802 81.5808 236.659 81.2936C235.513 81.0092 234.426 80.5798 233.396 80.0055C232.365 79.434 231.305 78.7174 230.218 77.8587C229.129 77 228.157 75.9132 227.299 74.5956C226.44 73.2807 225.667 71.7913 224.98 70.1302C224.293 68.4718 223.751 66.4377 223.348 64.0332C222.949 61.6288 222.747 59.0526 222.747 56.3047C222.747 51.7267 223.751 47.0305 225.753 42.2216C227.755 37.4127 230.905 33.205 235.199 29.5983C239.492 25.9917 244.328 24.1884 249.711 24.1884C251.657 24.1884 253.516 24.6177 255.293 25.4764C257.067 26.3352 258.755 27.6823 260.36 29.5125C261.962 31.3453 263.279 33.578 264.31 36.2105V36.3823L264.481 36.554V36.7258C265.74 40.5041 266.371 44.8569 266.371 49.7784C266.371 55.3896 265.512 60.4266 263.794 64.892C268.144 63.8615 272.867 61.2585 277.963 57.0776C283.057 52.8993 287.093 48.6916 290.071 44.4543C290.871 43.3111 291.274 42.7368 291.274 42.7368ZM261.046 60.4266C261.962 57.1071 262.42 53.5568 262.42 49.7784C262.42 45.2003 261.79 41.2502 260.531 37.928C258.814 34.1496 256.581 32.2604 253.833 32.2604C250.97 32.2604 248.222 33.1782 245.589 35.0083C242.954 36.8412 240.751 39.6186 238.977 43.3379C237.201 47.06 236.315 51.2114 236.315 55.7895C236.315 62.2031 237.144 67.2401 238.805 70.903C240.464 74.5688 242.782 76.3989 245.761 76.3989C247.935 76.3989 250.055 75.6556 252.116 74.1662C252.803 73.71 253.431 73.1948 254.005 72.6205C254.118 72.6205 254.177 72.5642 254.177 72.4487L254.348 72.277C255.492 71.1339 256.522 69.9316 257.44 68.6704C256.409 67.9834 255.835 67.012 255.722 65.7507C255.607 64.4921 256.007 63.3463 256.925 62.3158C257.84 61.2853 258.986 60.6574 260.36 60.4266C260.588 60.3139 260.816 60.3139 261.046 60.4266Z" fill="white"/>
<path d="M113.187 116.37V103.258H121.95V105.676H116.467V108.348H121.706V110.784H116.467V113.915H122.109V116.37H113.187V116.37Z" fill="white"/>
<path d="M125.879 116.37L131.596 103.258H135.382L140.49 116.37H137.013L136.076 113.82H130.424L129.374 116.37H125.879ZM131.371 111.572H135.241L133.404 106.586L131.371 111.572Z" fill="white"/>
<path d="M144.729 116.37V103.258H153.21V105.676H148.009V108.517H152.892V110.982H148.009V116.37H144.729V116.37Z" fill="white"/>
<path d="M154.266 116.37V103.258H163.029V105.676H157.547V108.348H162.785V110.784H157.547V113.915H163.188V116.37H154.266V116.37Z" fill="white"/>
<path d="M164.403 116.37V103.258H169.249C171.029 103.258 172.345 103.568 173.194 104.187C174.044 104.805 174.468 105.765 174.468 107.064C174.468 107.788 174.282 108.409 173.906 108.925C173.531 109.44 172.956 109.876 172.182 110.231C172.507 110.351 172.798 110.548 173.058 110.827C173.317 111.105 173.544 111.456 173.737 111.88L175.827 116.37H172.125L170.456 112.593C170.188 111.993 169.881 111.581 169.538 111.355C169.194 111.131 168.707 111.019 168.076 111.019C168.026 111.019 167.96 111.021 167.879 111.028C167.798 111.035 167.735 111.038 167.692 111.038V116.37H164.403V116.37ZM169.267 108.638C169.873 108.638 170.325 108.51 170.622 108.258C170.919 108.005 171.066 107.619 171.066 107.1C171.066 106.606 170.912 106.23 170.603 105.97C170.294 105.711 169.848 105.583 169.267 105.583H167.693V108.638H169.267V108.638Z" fill="white"/>
<path d="M175.919 116.37V103.258H178.815L183.023 108.535L187.25 103.258H190.145V116.37H186.922V108.254L183.023 113.053L179.161 108.254V116.37H175.919Z" fill="white"/>
<path d="M191.753 116.37V103.258H200.517V105.676H195.034V108.348H200.273V110.784H195.034V113.915H200.676V116.37H191.753V116.37Z" fill="white"/>
<path d="M205.058 108.131V116.37H201.816V103.258H204.693L211.721 111.075V103.258H214.964V116.37H212.397L205.058 108.131Z" fill="white"/>
<path d="M219.778 116.37V105.695H215.439V103.258H227.576V105.695H223.237V116.37H219.778Z" fill="white"/>
<path d="M225.327 116.37L231.044 103.258H234.831L239.938 116.37H236.461L235.524 113.82H229.873L228.823 116.37H225.327ZM230.819 111.572H234.69L232.853 106.586L230.819 111.572Z" fill="white"/>
<path d="M251.359 115.274C250.572 115.723 249.766 116.058 248.941 116.276C248.116 116.495 247.25 116.605 246.345 116.605C245.32 116.605 244.378 116.448 243.519 116.137C242.66 115.824 241.909 115.365 241.265 114.759C240.603 114.128 240.099 113.39 239.752 112.546C239.405 111.703 239.232 110.797 239.232 109.829C239.232 107.792 239.911 106.15 241.27 104.903C242.629 103.657 244.424 103.034 246.654 103.034C247.454 103.034 248.234 103.121 248.993 103.296C249.751 103.471 250.503 103.739 251.246 104.102V107.176C250.521 106.708 249.794 106.358 249.062 106.127C248.332 105.895 247.6 105.78 246.869 105.78C245.545 105.78 244.503 106.139 243.744 106.858C242.985 107.576 242.605 108.566 242.605 109.829C242.605 111.052 242.967 112.031 243.693 112.762C244.418 113.493 245.392 113.859 246.617 113.859C247.404 113.859 248.195 113.721 248.988 113.442C249.781 113.164 250.572 112.753 251.359 112.21V115.274ZM243.112 120.438V119.323C243.623 119.46 244.081 119.562 244.484 119.627C244.887 119.692 245.23 119.725 245.511 119.725C245.841 119.725 246.093 119.666 246.265 119.547C246.437 119.429 246.523 119.253 246.523 119.022C246.523 118.759 246.419 118.569 246.209 118.45C245.999 118.331 245.664 118.272 245.201 118.272C245.158 118.272 245.09 118.275 244.999 118.281C244.909 118.288 244.842 118.291 244.798 118.291V116.37H245.642V117.251H245.773C246.516 117.251 247.074 117.401 247.446 117.7C247.818 118.001 248.004 118.453 248.004 119.06C248.004 119.622 247.8 120.059 247.39 120.372C246.981 120.684 246.404 120.84 245.66 120.84C245.311 120.84 244.918 120.805 244.484 120.737C244.05 120.669 243.593 120.57 243.112 120.438Z" fill="white"/>
<path d="M250.67 116.369L256.387 103.258H260.174L265.282 116.369H261.805L260.868 113.82H255.216L254.166 116.369H250.67ZM261.149 99.3227C261.005 100.059 260.781 100.598 260.478 100.939C260.175 101.279 259.777 101.45 259.284 101.45C259.183 101.45 259.078 101.441 258.97 101.427C258.86 101.411 258.749 101.388 258.637 101.356L257.84 101.122C257.715 101.09 257.603 101.067 257.503 101.05C257.403 101.036 257.319 101.028 257.25 101.028C257.044 101.028 256.875 101.079 256.745 101.182C256.613 101.285 256.513 101.447 256.444 101.665H255.507C255.632 100.978 255.843 100.465 256.14 100.124C256.437 99.783 256.826 99.6126 257.307 99.6126C257.394 99.6126 257.498 99.6223 257.62 99.6408C257.743 99.6594 257.9 99.6944 258.093 99.7439L258.928 99.9788C259.009 99.996 259.088 100.011 259.167 100.021C259.245 100.03 259.324 100.034 259.406 100.034C259.6 100.034 259.768 99.9712 259.912 99.8428C260.056 99.715 260.155 99.5419 260.212 99.3234H261.149V99.3227ZM256.163 111.572H260.033L258.196 106.585L256.163 111.572Z" fill="white"/>
<path d="M264.575 109.829C264.575 108.853 264.747 107.953 265.091 107.125C265.435 106.297 265.947 105.558 266.629 104.908C267.292 104.283 268.044 103.817 268.884 103.511C269.726 103.206 270.661 103.052 271.693 103.052C272.737 103.052 273.682 103.207 274.526 103.515C275.37 103.825 276.123 104.29 276.786 104.908C277.46 105.557 277.972 106.296 278.318 107.125C278.666 107.953 278.839 108.853 278.839 109.829C278.839 110.797 278.666 111.695 278.318 112.523C277.972 113.351 277.46 114.083 276.786 114.721C276.117 115.346 275.358 115.816 274.511 116.131C273.664 116.447 272.724 116.605 271.693 116.605C270.668 116.605 269.734 116.447 268.893 116.136C268.052 115.823 267.297 115.351 266.628 114.72C265.954 114.083 265.442 113.35 265.095 112.522C264.749 111.695 264.575 110.797 264.575 109.829ZM267.95 109.829C267.95 110.997 268.302 111.958 269.006 112.711C269.709 113.463 270.605 113.839 271.694 113.839C272.789 113.839 273.688 113.464 274.392 112.711C275.096 111.958 275.448 110.997 275.448 109.829C275.448 108.653 275.096 107.689 274.392 106.932C273.688 106.176 272.789 105.798 271.694 105.798C270.605 105.798 269.709 106.177 269.006 106.932C268.302 107.689 267.95 108.653 267.95 109.829Z" fill="white"/>
<path d="M116.429 126.731V134.969H113.187V121.857H116.064L123.093 129.674V121.857H126.336V134.969H123.768L116.429 126.731Z" fill="white"/>
<path d="M126.295 134.97L132.012 121.858H135.798L140.906 134.97H137.428L136.491 132.42H130.84L129.79 134.97H126.295ZM131.787 130.171H135.657L133.82 125.185L131.787 130.171Z" fill="white"/>
<path d="M142.996 134.97V124.295H138.657V121.858H150.794V124.295H146.455V134.97H142.996Z" fill="white"/>
<path d="M163.555 121.858V129.365C163.555 131.202 163.01 132.635 161.92 133.663C160.829 134.691 159.306 135.205 157.351 135.205C155.401 135.205 153.881 134.691 152.791 133.663C151.701 132.635 151.156 131.202 151.156 129.365V121.858H154.454V129.233C154.454 130.277 154.704 131.076 155.204 131.628C155.703 132.18 156.429 132.457 157.378 132.457C158.322 132.457 159.04 132.182 159.535 131.634C160.028 131.083 160.274 130.284 160.274 129.233V121.858H163.555Z" fill="white"/>
<path d="M165.163 134.97V121.858H170.009C171.789 121.858 173.105 122.168 173.954 122.787C174.804 123.405 175.228 124.365 175.228 125.664C175.228 126.388 175.041 127.01 174.666 127.525C174.291 128.04 173.716 128.476 172.942 128.831C173.267 128.951 173.558 129.148 173.818 129.427C174.077 129.705 174.304 130.056 174.497 130.48L176.587 134.97H172.885L171.216 131.193C170.948 130.593 170.641 130.181 170.298 129.955C169.954 129.731 169.467 129.619 168.836 129.619C168.786 129.619 168.72 129.621 168.639 129.628C168.558 129.635 168.495 129.638 168.452 129.638V134.97H165.163V134.97ZM170.028 127.238C170.634 127.238 171.085 127.111 171.383 126.858C171.679 126.605 171.827 126.219 171.827 125.7C171.827 125.206 171.672 124.83 171.363 124.57C171.054 124.311 170.608 124.183 170.028 124.183H168.453V127.238H170.028V127.238Z" fill="white"/>
<path d="M175.01 134.97L180.727 121.858H184.513L189.621 134.97H186.144L185.207 132.42H179.555L178.506 134.97H175.01ZM180.503 130.171H184.373L182.536 125.185L180.503 130.171Z" fill="white"/>
<path d="M189.561 134.97V121.858H192.841V132.439H198.493V134.97H189.561Z" fill="white"/>
<path d="M209.41 3.72047C209.295 3.83588 209.239 3.95129 209.239 4.06396H209.067L208.895 4.2357C206.26 6.41206 202.369 7.49886 197.216 7.49886C194.469 7.49886 190.231 6.35572 184.507 4.06396C178.437 1.65952 173.8 0.457306 170.596 0.457306C168.076 0.457306 165.787 0.774004 163.726 1.4019C161.665 2.03255 160.177 2.6632 159.261 3.2911C158.343 3.92175 157.141 4.81002 155.654 5.95315L155.311 6.29664L154.967 6.64013C153.937 7.44253 153.851 8.38713 154.71 9.47393C155.568 10.5635 156.513 10.6494 157.543 9.73155C158.23 9.15998 158.772 8.76016 159.175 8.52933C159.575 8.30125 160.146 7.9873 160.892 7.58473C161.636 7.18491 162.379 6.87096 163.125 6.64013C163.868 6.41206 164.842 6.24031 166.045 6.1249C167.247 6.01223 168.535 5.95315 169.909 5.95315C172.657 5.95315 176.72 7.04271 182.103 9.21631C187.942 11.7362 192.52 12.9947 195.843 12.9947C201.91 12.9947 207.178 11.1055 211.643 7.32712L211.987 6.98362C212.099 6.98362 212.158 6.92729 212.158 6.81188C213.189 6.01223 213.275 5.06763 212.416 3.97808C211.557 2.89128 211.128 2.3465 211.128 2.3465C211.128 2.3465 210.554 2.80609 209.41 3.72047Z" fill="white"/>
</svg>
